<?xml version="1.0" encoding="utf-8"?>
<!-- Generator: Adobe Illustrator 23.0.1, SVG Export Plug-In . SVG Version: 6.00 Build 0)  -->
<svg version="1.1" id="Layer_1" xmlns="http://www.w3.org/2000/svg" xmlns:xlink="http://www.w3.org/1999/xlink" x="0px" y="0px"
	 viewBox="0 0 1920 1080" style="enable-background:new 0 0 1920 1080;" xml:space="preserve">
<style type="text/css">
	.st0{fill:#E1DEFC;}
	.st1{fill:none;}
</style>
<g>
	<path class="st0" d="M45,1035V870.8c39.9,8.6,76.6,28.5,106.2,58c29.6,29.6,49.4,66.2,58,106.2H45z"/>
	<path class="st0" d="M90,937.1c10.5,6.7,20.3,14.5,29.4,23.5c9,9,16.9,18.9,23.5,29.4H90V937.1 M0,821v259h259
		C258.7,937.1,142.9,821.3,0,821L0,821z"/>
</g>
<g>
	<path class="st0" d="M903,30c0,179.5-145.5,325-325,325S253,209.5,253,30c0-10.1,0.5-20.1,1.4-30h647.3C902.5,9.9,903,19.9,903,30z
		"/>
</g>
<g>
	<path class="st0" d="M1920,463.4V1080h-861.1c-1.9-19.6-2.9-39.4-2.9-59.5c0-337.7,273.8-611.5,611.5-611.5
		C1757.5,409,1843,428.5,1920,463.4z"/>
</g>
<g>
	<path class="st0" d="M1813.5,208c-56,0-101.5-45.5-101.5-101.5c0-22.6,7.3-43.9,20.7-61.5H1875v142.3
		C1857.4,200.7,1836.1,208,1813.5,208z"/>
	<path class="st0" d="M1830,90v70.6c-5.3,1.6-10.8,2.4-16.5,2.4c-31.2,0-56.5-25.3-56.5-56.5c0-5.7,0.8-11.2,2.4-16.5H1830
		 M1914.1,0h-201.2c-28.3,26.7-45.9,64.5-45.9,106.5c0,80.9,65.6,146.5,146.5,146.5c42,0,79.8-17.6,106.5-45.9V5.9
		C1918.1,3.9,1916.1,1.9,1914.1,0L1914.1,0z"/>
</g>
<g>
	<path class="st1" d="M2279,1020.5c0,337.7-273.8,611.5-611.5,611.5c-317.6,0-578.7-242.2-608.6-552H1920V463.4
		C2131.7,559.5,2279,772.8,2279,1020.5z"/>
</g>
<g>
	<path class="st1" d="M1960,106.5c0,39-15.2,74.4-40,100.6V5.9C1944.8,32.1,1960,67.5,1960,106.5z"/>
</g>
<g>
	<path class="st1" d="M1914.1,0h-201.2c26.2-24.8,61.6-40,100.6-40S1887.9-24.8,1914.1,0z"/>
</g>
<g>
	<path class="st1" d="M901.6,0H254.4C269.5-165.4,408.6-295,578-295S886.5-165.4,901.6,0z"/>
</g>
<g>
	<path class="st1" d="M0,1080h259v0.5C259,1223.8,142.8,1340-0.5,1340S-260,1223.8-260,1080.5S-143.8,821-0.5,821H0V1080z"/>
</g>
<g>
	<rect class="st1" width="1920" height="1080"/>
</g>
</svg>
