<svg xmlns="http://www.w3.org/2000/svg" xmlns:xlink="http://www.w3.org/1999/xlink" width="1000" height="1000" viewBox="0 0 1000 1000">
  <defs>
    <filter id="Path_1" x="144.831" y="840.177" width="724.347" height="113.523" filterUnits="userSpaceOnUse">
      <feOffset dy="3" input="SourceAlpha"/>
      <feGaussianBlur stdDeviation="14" result="blur"/>
      <feFlood flood-opacity="0.161"/>
      <feComposite operator="in" in2="blur"/>
      <feComposite in="SourceGraphic"/>
    </filter>
    <filter id="Path_38" x="415.513" y="568.395" width="82.234" height="82.234" filterUnits="userSpaceOnUse">
      <feOffset dy="3" input="SourceAlpha"/>
      <feGaussianBlur stdDeviation="3" result="blur-2"/>
      <feFlood flood-opacity="0.161"/>
      <feComposite operator="in" in2="blur-2"/>
      <feComposite in="SourceGraphic"/>
    </filter>
    <filter id="Path_41" x="520.607" y="567.041" width="82.246" height="82.248" filterUnits="userSpaceOnUse">
      <feOffset dy="3" input="SourceAlpha"/>
      <feGaussianBlur stdDeviation="3" result="blur-3"/>
      <feFlood flood-opacity="0.161"/>
      <feComposite operator="in" in2="blur-3"/>
      <feComposite in="SourceGraphic"/>
    </filter>
    <clipPath id="clip-custom_1">
      <rect width="1000" height="1000"/>
    </clipPath>
  </defs>
  <g id="custom_1" data-name="custom – 1" clip-path="url(#clip-custom_1)">
    <rect width="1000" height="1000" fill="#fff"/>
    <g id="Group_5" data-name="Group 5" transform="translate(1450.219 -87.319) rotate(132)" style="isolation: isolate">
      <path id="Path_104" data-name="Path 104" d="M770.858,1814.616c-272.015-49.81-489.627-239.849-598.929-517.054C61.64,1021.437,88.841,684.675,241.17,432.914c35.115-57.931,76.659-111.531,125.622-154.845C510.217,152.46,719.917,125.931,885.106,212.556c49.456,25.99,96.44,62.806,124.137,114.782,20.278,38.439,29.675,82.837,49.458,121.278,31.157,60.1,86.551,100.161,143.92,129.4,57.371,28.7,118.7,48.188,175.08,78.506,193.378,103.954,318.01,355.171,270.532,584.734-22.256,107.2-77.154,203.031-142.437,285.868-128.59,162.427-316.034,284.786-511.885,270.17" transform="translate(0 0)" fill="#007dff" opacity="0.09" style="isolation: isolate"/>
    </g>
    <g id="Group_7" data-name="Group 7" transform="translate(-7.055 -43.086)">
      <g id="Group_4" data-name="Group 4" transform="translate(193.886 402.037)">
        <g transform="matrix(1, 0, 0, 1, -186.83, -358.95)" filter="url(#Path_1)" style="isolation: isolate">
          <path id="Path_1-2" data-name="Path 1" d="M466.539,921.481c176.828,0,320.174-6.609,320.174-14.762s-143.346-14.761-320.174-14.761-320.174,6.608-320.174,14.761S289.712,921.481,466.539,921.481Z" transform="translate(40.47 -12.78)" fill="#014385" opacity="0.09"/>
        </g>
        <path id="Path_2" data-name="Path 2" d="M636.877,533.345c3.591-11.171,9.974-21.345,16.757-30.92,7.182-9.974,14.363-19.949,22.741-28.926a293.158,293.158,0,0,1,23.14-21.344c8.179-6.782,16.358-13.365,24.138-20.547a144.7,144.7,0,0,0,20.747-23.34c.8-1,1.4-2.195,2.194-3.192.6-1-1-1.994-1.6-1a128.245,128.245,0,0,1-20.149,23.938c-7.58,7.381-15.758,13.963-23.938,20.746a296.413,296.413,0,0,0-23.54,21.145c-8.578,8.778-15.758,18.552-22.94,28.327-6.782,9.575-13.565,19.35-17.954,30.522-.6,1.4-1,2.792-1.4,3.989C634.882,533.944,636.677,534.543,636.877,533.345Z" transform="translate(-217.862 -316.505)" fill="#6c757d"/>
        <path id="Path_3" data-name="Path 3" d="M756.04,400.137c-1.6-8.777.4-17.953,3.79-26.132s7.98-15.959,11.97-23.939a145.574,145.574,0,0,0,11.37-31.119,353.633,353.633,0,0,1-5.386,35.907C774.791,370.614,767.609,388.966,756.04,400.137Z" transform="translate(-229.702 -308.175)" fill="#6c757d"/>
        <path id="Path_4" data-name="Path 4" d="M732.254,431.41c6.782-6.982,16.358-10.373,25.734-12.966,9.376-2.394,18.751-4.987,27.728-8.977,12.368-5.387,15.959-7.78,28.726-17.954-6.783,14.364-19.55,25.534-34.112,31.918-14.563,6.583-33.714,9.774-49.672,9.376" transform="translate(-227.261 -315.31)" fill="#6c757d"/>
        <path id="Path_5" data-name="Path 5" d="M718.516,434.648c.6-6.982-3.192-13.565-5.387-20.347a51.127,51.127,0,0,1-2.393-18.951c.4-6.384,2.194-12.568,3.79-18.552,4.189-15.161,8.378-30.522,12.568-45.682-1.6,17.156-.2,34.511-.4,51.866,0,17.355,0,35.708-7.381,51.467" transform="translate(-225.292 -309.371)" fill="#6c757d"/>
        <path id="Path_6" data-name="Path 6" d="M696.943,462.634c7.181-5.387,17.754-5.985,26.731-6.384s17.953.4,26.93-.2c15.959-1.2,31.119-6.983,46.081-12.768-8.378,9.377-17.354,18.951-29.125,23.54a54.389,54.389,0,0,1-12.767,3.191,98.748,98.748,0,0,1-37.5-1.8c-6.184-1.6-14.762-3.99-21.145-4.189" transform="translate(-223.868 -320.401)" fill="#6c757d"/>
        <path id="Path_7" data-name="Path 7" d="M682.579,465.781a49.252,49.252,0,0,1-10.772-32.117,80.819,80.819,0,0,1,1.4-13.964c2.793-19.949,5.586-40.1,8.378-60.045,5.387,21.345,10.772,43.288,7.182,65.032-2.195,13.565-6.185,27.529-4.987,41.094" transform="translate(-221.474 -312.178)" fill="#6c757d"/>
        <path id="Path_8" data-name="Path 8" d="M667.384,495.493c6.383-5.387,15.36-6.185,23.738-5.186,8.179,1,16.358,3.591,24.537,3.591,14.961,0,29.523-7.78,44.485-6.384a62.661,62.661,0,0,1-50.27,15.959C696.109,501.477,681.148,494.3,667.384,495.493Z" transform="translate(-221.04 -324.733)" fill="#6c757d"/>
        <path id="Path_9" data-name="Path 9" d="M656.569,499.971c-2.195-4.589-5.984-8.378-8.778-12.568-6.782-10.573-7.78-23.938-6.982-36.506s3.391-25.135,2.593-37.7c5.785,12.767,7.78,27.129,9.775,41.094.8,5.984,1.8,11.969,1.8,18.153C655.372,481.818,658.364,490.4,656.569,499.971Z" transform="translate(-218.404 -317.442)" fill="#ff9e05"/>
        <path id="Path_10" data-name="Path 10" d="M652.118,521.671c4.389-4.788,11.97-3.591,18.353-2.195a262.878,262.878,0,0,0,54.46,5.586C703.186,537.429,671.668,537.429,652.118,521.671Z" transform="translate(-219.538 -327.771)" fill="#ff9e05"/>
        <path id="Path_11" data-name="Path 11" d="M643.333,518.884c-6.383-5.386-12.767-10.772-16.557-18.152-3.391-6.783-4.388-14.762-4.787-22.343a146.68,146.68,0,0,1,0-20.946c8.578,18.353,17.953,40.495,21.744,60.444" transform="translate(-216.539 -321.793)" fill="#ff9e05"/>
        <path id="Path_12" data-name="Path 12" d="M426.61,563.066c-10.174-6.184-18.353-14.762-25.933-23.738-7.98-9.176-15.959-18.752-22.741-28.926a246.455,246.455,0,0,1-15.161-27.529c-4.589-9.576-9.176-19.151-14.364-28.327a139.366,139.366,0,0,0-17.754-25.534,35.7,35.7,0,0,0-2.593-2.793c-.8-.8-1.994.4-1.2,1.4a133.044,133.044,0,0,1,18.353,25.135c5.187,9.176,9.775,18.751,14.364,28.128a288.128,288.128,0,0,0,14.961,27.927c6.383,10.373,14.163,19.749,22.142,28.926,7.58,8.976,15.56,17.953,25.335,24.736l3.59,2.394C426.81,565.261,427.608,563.665,426.61,563.066Z" transform="translate(-187.531 -318.697)" fill="#6c757d"/>
        <path id="Path_13" data-name="Path 13" d="M323.424,424.585c-8.977-.4-17.355-4.589-24.536-9.974-7.182-5.187-13.565-11.57-20.348-17.355A140.781,140.781,0,0,0,251.011,378.9a351.375,351.375,0,0,1,33.713,13.764C299.087,399.449,315.245,410.82,323.424,424.585Z" transform="translate(-180.098 -314.07)" fill="#6c757d"/>
        <path id="Path_14" data-name="Path 14" d="M349.608,449.267c-5.186-8.178-6.184-18.353-6.383-28.127s-.4-19.351-2-28.926c-2.194-13.365-3.79-17.355-10.572-32.118,12.367,9.974,20.148,25.136,22.94,40.7s1.6,35.109-2.593,50.47" transform="translate(-187.93 -312.221)" fill="#6c757d"/>
        <path id="Path_15" data-name="Path 15" d="M347.787,470.447c-6.782-2.195-13.964-.2-20.946.4a50.486,50.486,0,0,1-18.951-2.195,96.435,96.435,0,0,1-17.156-8.178c-13.764-7.58-27.728-15.361-41.493-22.941,16.358,5.785,33.514,8.578,50.271,12.767s34.71,8.379,48.275,19.351" transform="translate(-179.924 -319.835)" fill="#6c757d"/>
        <path id="Path_16" data-name="Path 16" d="M371.369,489.268c-3.591-8.378-1.6-18.552.2-27.529,1.8-8.777,4.788-17.355,6.184-26.331,2.594-15.759.6-31.918-1.4-47.877,6.982,10.374,14.363,21.345,15.959,33.714a58.118,58.118,0,0,1,0,13.165,99.3,99.3,0,0,1-10.573,36.107c-2.992,5.785-7.381,13.365-9.176,19.549" transform="translate(-191.736 -314.918)" fill="#6c757d"/>
        <path id="Path_17" data-name="Path 17" d="M369.167,513.413a49.169,49.169,0,0,1-33.713,2.792,105.572,105.572,0,0,1-13.366-4.588c-18.752-7.58-37.5-14.961-56.255-22.542,21.944-.2,44.685,0,64.833,8.578,12.567,5.387,25.135,12.568,38.7,14.563" transform="translate(-181.556 -324.899)" fill="#6c757d"/>
        <path id="Path_18" data-name="Path 18" d="M395.015,526.617c-3.79-7.38-2.194-16.357.6-24.138,2.993-7.78,7.381-14.961,9.376-23.14,3.591-14.563-.6-30.522,4.389-44.685a61.31,61.31,0,0,1,3.391,52.465C407.583,500.087,397.011,512.853,395.015,526.617Z" transform="translate(-194.038 -319.552)" fill="#ff9e05"/>
        <path id="Path_19" data-name="Path 19" d="M396.108,547.322c-4.987,1-9.376,3.791-14.364,5.386-11.969,4.189-25.135,2-37.1-1.994-11.969-3.79-23.539-9.176-36.107-11.57,13.963-2.593,28.127-1.2,42.091.2a134.218,134.218,0,0,1,17.954,2.594C378.154,544.329,387.131,543.531,396.108,547.322Z" transform="translate(-185.754 -329.683)" fill="#6c757d"/>
        <path id="Path_20" data-name="Path 20" d="M416.318,549.807c-3.59-5.387-.6-12.567,2.195-18.353a265.478,265.478,0,0,0,18.353-51.667C443.648,503.926,436.267,534.446,416.318,549.807Z" transform="translate(-196.191 -323.99)" fill="#ff9e05"/>
        <path id="Path_21" data-name="Path 21" d="M411.22,564.439c-6.583,4.788-13.565,9.775-21.545,11.77-7.38,1.8-15.36.8-22.741-.6a137.766,137.766,0,0,1-20.347-4.987c19.949-3.99,43.687-7.78,63.835-6.782" transform="translate(-189.496 -332.239)" fill="#6c757d"/>
        <path id="Path_22" data-name="Path 22" d="M605.184,841.819H418.864a35.161,35.161,0,0,1-35.109-35.109V343.9a36.949,36.949,0,0,1,36.9-36.9H599.4a42.312,42.312,0,0,1,42.29,42.291V805.114A36.438,36.438,0,0,1,605.184,841.819Z" transform="translate(-193.151 -307)" fill="#cae2fb"/>
        <path id="Path_23" data-name="Path 23" d="M554.517,337.4H494.472a5.281,5.281,0,0,1-5.186-5.186v-1a5.281,5.281,0,0,1,5.186-5.186h60.045a5.281,5.281,0,0,1,5.187,5.186v1A5.15,5.15,0,0,1,554.517,337.4Z" transform="translate(-203.527 -308.871)" fill="#94ccfb"/>
        <path id="Path_24" data-name="Path 24" d="M526.032,885.562A16.358,16.358,0,1,0,509.674,869.2,16.357,16.357,0,0,0,526.032,885.562Z" transform="translate(-205.532 -360.672)" fill="#94ccfb"/>
        <path id="Path_25" data-name="Path 25" d="M634.311,419.881V357.443H393.932V676.819C542.548,693.974,611.77,501.271,634.311,419.881Z" transform="translate(-194.151 -311.96)" fill="#fff" opacity="0.87" style="isolation: isolate"/>
        <path id="Path_26" data-name="Path 26" d="M393.932,683.628v114.7H634.311V426.69C611.77,508.08,542.548,700.783,393.932,683.628Z" transform="translate(-194.151 -318.769)" fill="#fff" opacity="0.84" style="isolation: isolate"/>
        <path id="Path_27" data-name="Path 27" d="M634.689,446.214,599.18,357.443H434.605l-40.3,88.771a51.82,51.82,0,0,0-.6,7.98c0,20.148,10.572,36.505,23.539,36.505,10.573,0,19.749-10.971,22.542-25.933v.2c3.391,14.961,13.964,25.734,26.332,25.734,12.966,0,23.938-12.168,26.731-28.327,2.593,16.159,12.168,28.327,23.938,28.327,10.972,0,20.348-10.772,23.54-25.534.2.4.2,1,.4,1.4,3.791,14.163,13.964,24.138,25.933,24.138,12.767,0,23.34-11.37,26.532-26.93v.2c2.394,15.361,10.772,26.731,20.547,26.731,11.77,0,21.344-16.357,21.344-36.505A53.539,53.539,0,0,0,634.689,446.214Z" transform="translate(-194.13 -311.96)" fill="#d3d5dd" opacity="0.87" style="isolation: isolate"/>
        <path id="Path_28" data-name="Path 28" d="M509.59,357.443l-8.578,69.62h52.664l-7.98-69.62Z" transform="translate(-204.68 -311.96)" fill="#2d9aff"/>
        <path id="Path_29" data-name="Path 29" d="M462.386,357.443l-25.534,69.62H494.7l8.578-69.62Z" transform="translate(-198.372 -311.96)" fill="#fff"/>
        <path id="Path_30" data-name="Path 30" d="M426.557,357.443l-43.687,69.62h49.073l25.135-69.62Z" transform="translate(-193.064 -311.96)" fill="#2d9aff"/>
        <path id="Path_31" data-name="Path 31" d="M663.245,427.063l-38.5-69.62H592.826l25.334,69.62Z" transform="translate(-213.708 -311.96)" fill="#2d9aff"/>
        <path id="Path_32" data-name="Path 32" d="M588.671,357.443h-38.1l7.58,69.62H614.4Z" transform="translate(-209.553 -311.96)" fill="#fff"/>
        <path id="Path_33" data-name="Path 33" d="M437.3,434.655l.4,14.762a29.432,29.432,0,0,0,28.327,20.148c14.163,0,25.933-9.576,28.926-22.143l-.4-12.767Z" transform="translate(-198.415 -319.552)" fill="#efeded"/>
        <path id="Path_34" data-name="Path 34" d="M382.8,434.655a31,31,0,0,0-.6,6.184c0,15.759,11.371,28.726,25.534,28.726,11.57,0,21.345-8.578,24.337-20.347v.2l-.4-14.762Z" transform="translate(-192.998 -319.552)" fill="#0084ff"/>
        <path id="Path_35" data-name="Path 35" d="M501.012,434.655l.4,12.767c2.793,12.768,13.166,22.143,25.933,22.143,11.97,0,21.944-8.378,25.335-20.148.2.4.2.8.4,1.2l.4-15.959Z" transform="translate(-204.68 -319.552)" fill="#0084ff"/>
        <path id="Path_36" data-name="Path 36" d="M666.051,434.655H621.366v13.964c2.792,12.168,11.57,20.946,22.142,20.946,12.768,0,22.941-12.767,22.941-28.726A21.569,21.569,0,0,0,666.051,434.655Z" transform="translate(-216.515 -319.552)" fill="#0084ff"/>
        <path id="Path_37" data-name="Path 37" d="M558.933,434.633l-.4,15.959a30.07,30.07,0,0,0,56.654-2.194V434.434H558.933Z" transform="translate(-210.336 -319.53)" fill="#efeded"/>
        <g transform="matrix(1, 0, 0, 1, -186.83, -358.95)" filter="url(#Path_38)">
          <path id="Path_38-2" data-name="Path 38" d="M468.085,610.172a32.117,32.117,0,1,0-32.118-32.117A32.115,32.115,0,0,0,468.085,610.172Z" transform="translate(-11.45 28.46)" fill="#fff"/>
        </g>
        <path id="Path_39" data-name="Path 39" d="M447.354,575.911c3.99,1.2,7.181,3.59,11.969,6.583,3.791,2.194,6.583,5.386,10.573,6.982a21.454,21.454,0,0,0,6.184,1.4,74.238,74.238,0,0,0,19.949-.4.8.8,0,0,0,.8-.4,1.321,1.321,0,0,0-.2-1.2c-1.2-1.8-3.391-2.593-5.386-3.191-2.195-.8-4.589-1.6-6.783-2.394a4.7,4.7,0,0,0-1.6-.4,7.077,7.077,0,0,0-2.194.6c-3.99,1.2-8.179,0-11.97-1.6-7.979-3.391-13.963-10.174-20.946-15.161-1.995,2.394-1.4,5.186-1.4,7.181a3.759,3.759,0,0,0,.4,1.6C446.556,575.712,446.955,575.712,447.354,575.911Z" transform="translate(-199.298 -332.539)" fill="#2e2014"/>
        <path id="Path_40" data-name="Path 40" d="M446.366,576.248l2.593,14.563,2.194.2s-3.191-9.974-.8-14.563" transform="translate(-199.307 -333.475)" fill="#2e2014"/>
        <g transform="matrix(1, 0, 0, 1, -186.83, -358.95)" filter="url(#Path_41)">
          <path id="Path_41-2" data-name="Path 41" d="M616.344,581.732a32.118,32.118,0,1,0-36.871,26.53A32.119,32.119,0,0,0,616.344,581.732Z" transform="translate(-22.91 28.6)" fill="#fff"/>
        </g>
        <path id="Path_42" data-name="Path 42" d="M591.931,569.905l1.6-5.586,1.6,1.8,4.189-1.4-5.785-8.179-5.785-2.195-.8,7.182-1-7.182-5.785,2.195-5.785,8.179,4.189,1.4,1.6-1.8,1.6,5.586-8.179,25.335H600.11Z" transform="translate(-211.816 -331.321)" fill="#ff9e05"/>
        <path id="Path_43" data-name="Path 43" d="M619.668,653.239H413.4v41.294H619.668Z" transform="translate(-196.066 -341.045)" fill="#0084ff"/>
        <path id="Path_44" data-name="Path 44" d="M422.868,663.5H604.8c2.394,0,4.987.2,7.381,0h.4a.6.6,0,0,0,0-1.2H430.847c-2.394,0-4.987-.2-7.381,0h-.4C422.27,662.5,422.27,663.5,422.868,663.5Z" transform="translate(-196.955 -341.927)" fill="#fff"/>
        <path id="Path_45" data-name="Path 45" d="M422.868,671.9H604.8c2.394,0,4.987.2,7.381,0h.4a.6.6,0,0,0,0-1.2H430.847c-2.394,0-4.987-.2-7.381,0h-.4C422.27,670.707,422.27,671.9,422.868,671.9Z" transform="translate(-196.955 -342.754)" fill="#fff"/>
        <path id="Path_46" data-name="Path 46" d="M422.868,680.091H604.8c2.394,0,4.987.2,7.381,0h.4a.6.6,0,0,0,0-1.2H430.847c-2.394,0-4.987-.2-7.381,0h-.4C422.27,679.093,422.27,680.091,422.868,680.091Z" transform="translate(-196.955 -343.559)" fill="#fff"/>
        <path id="Path_47" data-name="Path 47" d="M422.868,688.5H604.8c2.394,0,4.987.2,7.381,0h.4a.6.6,0,0,0,0-1.2H430.847c-2.394,0-4.987-.2-7.381,0h-.4C422.27,687.5,422.27,688.5,422.868,688.5Z" transform="translate(-196.955 -344.386)" fill="#fff"/>
        <path id="Path_49" data-name="Path 49" d="M308.88,643.847l-2.593-1.4c0-.2,6.982-13.964,3.59-22.543a9.762,9.762,0,0,0-6.384-5.784,12.835,12.835,0,0,0-10.174.6c-8.578,4.189-12.967,17.156-12.967,17.355l-2.792-1c.2-.6,4.788-14.163,14.363-18.951a15.313,15.313,0,0,1,12.567-.6,13.118,13.118,0,0,1,8.179,7.381C316.659,628.885,309.278,643.249,308.88,643.847Z" transform="translate(-182.709 -336.839)" fill="#014385"/>
        <path id="Path_50" data-name="Path 50" d="M315.517,646.723l-2.593-1.4c0-.2,7.181-13.964,3.59-22.542A9.759,9.759,0,0,0,310.13,617a12.835,12.835,0,0,0-10.174.6c-8.578,4.189-12.966,17.156-12.966,17.355l-2.793-1c.2-.6,4.788-14.164,14.364-18.951a15.309,15.309,0,0,1,12.567-.6,13.114,13.114,0,0,1,8.178,7.38C323.3,631.562,315.915,645.925,315.517,646.723Z" transform="translate(-183.361 -337.122)" fill="#014385"/>
        <path id="Path_51" data-name="Path 51" d="M294.191,774.275l22.143-80.991c-18.153,22.343-60.843,62.239-121.886,40.495l-1,2a3.352,3.352,0,0,0,1.6,4.588l92.362,37.5A5.387,5.387,0,0,0,294.191,774.275Z" transform="translate(-174.404 -344.983)" fill="rgba(0,132,255,0.76)"/>
        <path id="Path_52" data-name="Path 52" d="M316.459,686.537l7.78-28.327a3.785,3.785,0,0,0-2.195-4.389L250.629,624.9a3.307,3.307,0,0,0-4.189,1.6l-52.066,100.54C255.616,748.776,298.306,708.88,316.459,686.537Z" transform="translate(-174.529 -338.236)" fill="#0084ff"/>
        <path id="Path_53" data-name="Path 53" d="M342.274,595.377l-1,.4s-2.194-5.186-5.585-6.184a3.737,3.737,0,0,0-3.192.4,4.6,4.6,0,0,0-2.195,2.993c-.8,3.391,1.8,7.58,1.8,7.78l-.8.6c-.2-.2-2.992-4.589-1.995-8.578a5.848,5.848,0,0,1,2.792-3.791,4.8,4.8,0,0,1,3.99-.6C339.88,589.791,342.274,595.177,342.274,595.377Z" transform="translate(-187.776 -334.65)" fill="#014385"/>
        <path id="Path_54" data-name="Path 54" d="M344.486,594.27l-1,.4s-2.195-5.186-5.586-6.184a3.735,3.735,0,0,0-3.192.4,4.594,4.594,0,0,0-2.194,2.993c-.8,3.391,1.8,7.58,1.8,7.78l-.8.6c-.2-.2-2.993-4.589-2-8.579a5.844,5.844,0,0,1,2.793-3.79,4.8,4.8,0,0,1,3.99-.6C342.092,588.486,344.486,594.071,344.486,594.27Z" transform="translate(-187.993 -334.541)" fill="#014385"/>
        <path id="Path_55" data-name="Path 55" d="M376.651,627.047,358.9,601.912c2.195,10.373,3.391,31.718-16.956,43.887l.4.8a1.1,1.1,0,0,0,1.6.6l32.117-17.355A1.961,1.961,0,0,0,376.651,627.047Z" transform="translate(-189.039 -335.998)" fill="#003968"/>
        <path id="Path_56" data-name="Path 56" d="M357.1,600.889l-6.184-8.778a1.3,1.3,0,0,0-1.8-.4L324.39,605.277a1.256,1.256,0,0,0-.6,1.6l16.358,38.1C360.5,632.607,359.1,611.261,357.1,600.889Z" transform="translate(-187.247 -334.975)" fill="#014385"/>
        <path id="Path_57" data-name="Path 57" d="M218.8,799.972,195.259,688.859H377.788L348.265,799.972ZM200.646,693.247l21.744,102.336H344.873L372.2,693.247Z" transform="translate(-174.616 -344.548)" fill="#014385"/>
        <path id="Path_58" data-name="Path 58" d="M369.467,715.149l-165.374,1.292.034,4.389L369.5,719.537Z" transform="translate(-175.485 -347.133)" fill="#014385"/>
        <path id="Path_59" data-name="Path 59" d="M362.761,747.009l-149.814.878.025,4.388,149.815-.877Z" transform="translate(-176.355 -350.265)" fill="#014385"/>
        <path id="Path_60" data-name="Path 60" d="M353.875,780.673H217.826v4.389H353.875Z" transform="translate(-176.835 -353.576)" fill="#014385"/>
        <path id="Path_61" data-name="Path 61" d="M403.51,676.248H381.566a2.161,2.161,0,0,0-2.194,1.6c-1,3.391-1.8,6.983-2.793,10.374-2.394,8.578-4.588,17.155-6.982,25.734-2.993,11.171-5.984,22.142-8.977,33.313-2.992,10.972-5.984,22.143-8.977,33.115-2.194,8.378-4.388,16.557-6.782,24.936-.6,2.394-1.2,4.589-1.8,6.982a39.277,39.277,0,0,1-1.6,5.187,20.664,20.664,0,0,1-18.552,11.969h-89.17c-2.792,0-2.792,4.388,0,4.388h88.571a25.6,25.6,0,0,0,14.363-3.989,25.2,25.2,0,0,0,10.573-14.563l1.2-4.189c1.994-7.182,3.79-14.164,5.784-21.345,2.793-10.572,5.785-21.344,8.578-31.917,2.992-11.37,6.184-22.741,9.176-34.311l7.78-28.725c1.4-4.987,2.792-9.974,3.99-14.961,0-.2.2-.4.2-.6a15.277,15.277,0,0,1-2.194,1.6h21.943C406.3,680.637,406.3,676.248,403.51,676.248Z" transform="translate(-178.195 -343.308)" fill="#014385"/>
        <path id="Path_62" data-name="Path 62" d="M264.374,861.027a11.77,11.77,0,1,1-11.77-11.77A11.792,11.792,0,0,1,264.374,861.027Z" transform="translate(-179.097 -360.319)" fill="#014385"/>
        <path id="Path_63" data-name="Path 63" d="M257.087,861.919a3.591,3.591,0,1,1-3.59-3.591A3.576,3.576,0,0,1,257.087,861.919Z" transform="translate(-179.989 -361.211)" fill="#fffeff"/>
        <path id="Path_64" data-name="Path 64" d="M335.391,861.027a11.77,11.77,0,1,1-11.77-11.77A11.666,11.666,0,0,1,335.391,861.027Z" transform="translate(-186.081 -360.319)" fill="#014385"/>
        <path id="Path_65" data-name="Path 65" d="M328.326,861.919a3.591,3.591,0,1,1-3.59-3.591A3.576,3.576,0,0,1,328.326,861.919Z" transform="translate(-186.994 -361.211)" fill="#fffeff"/>
        <path id="Path_66" data-name="Path 66" d="M247.893,690.916l-4.367.439,10.7,106.587,4.367-.437Z" transform="translate(-179.362 -344.75)" fill="#014385"/>
        <path id="Path_67" data-name="Path 67" d="M337.124,691.131,326.56,797.73l4.367.433,10.565-106.6Z" transform="translate(-187.527 -344.771)" fill="#014385"/>
        <path id="Path_68" data-name="Path 68" d="M295.223,691.293h-4.389V798.018h4.389Z" transform="translate(-184.014 -344.787)" fill="#014385"/>
        <path id="Path_69" data-name="Path 69" d="M607.344,806.173A49.7,49.7,0,0,1,612.53,795.4l1.8.6a41.637,41.637,0,0,0,3.391-8.179c6.384.6,12.967,1,19.151-.2,6.384-1.4,12.169-4.589,18.153-7.381A118.2,118.2,0,0,1,700.3,769.867a5.072,5.072,0,0,0,3.391-.8c1.8-1.2,1.6-3.791,1.2-5.985a48.55,48.55,0,0,0-7.182-17.953l19.55-17.555c4.987,12.767,3.989,14.363,6.383,24.936.4,1.8,2,11.37,2.195,13.166.8,7.181-.6,13.565-9.576,16.757-31.119,10.572-59.646,9.774-89.768,16.956a30.052,30.052,0,0,0-18.153,17.355S605.149,812.756,607.344,806.173Z" transform="translate(-215.06 -348.355)" fill="#ffaa95"/>
        <path id="Path_70" data-name="Path 70" d="M621.654,794.059c-2-1.4-4.389-1-5.985-.8a3.7,3.7,0,0,0-1.4.4l-11.97,2.593v1.8s6.783-2.394,10.973-1.6c-1,2.394-2.594,4.588-4.389,7.58s-4.388,5.386-5.585,8.578a13.885,13.885,0,0,0-1,4.987,46.651,46.651,0,0,0,.8,15.759.733.733,0,0,0,.2.6c.2.2.8,0,1-.2,1.4-1,1.994-2.792,2.593-4.388.6-1.8,1.2-3.59,1.995-5.586a2.528,2.528,0,0,0,.2-1.2,5.831,5.831,0,0,0-.4-1.8c-1.2-2.993-.2-6.384,1.2-9.576C612.078,804.632,617.465,799.645,621.654,794.059Z" transform="translate(-214.608 -354.793)" fill="#2e2014"/>
        <path id="Path_71" data-name="Path 71" d="M704.009,852c-2.194-14.563-9.774-28.526-8.976-43.288.2-5.186,1.6-10.374,2.593-15.361a101.946,101.946,0,0,0-1.2-41.094l23.34-4.987c1.6,32.516-7.181,48.076-5.585,80.392.2,3.99,1.2,21.745,2.593,26.532.8,2.993,1,5.386,2.792,9.176.2.2.2.4.4.8a127.28,127.28,0,0,0,10.374,19.35,20.673,20.673,0,0,1-7.381.8c-3.59-.6-13.565-9.575-15.56-13.365a50.251,50.251,0,0,1-2.992-6.782,12.127,12.127,0,0,0-2-1.4C704.607,859.975,704.607,855.786,704.009,852Z" transform="translate(-223.752 -350.291)" fill="#f49987"/>
        <path id="Path_72" data-name="Path 72" d="M742.2,903.937c-.8-1.8-2.594-2.993-4.189-3.99-1.8-1.2-3.791-2.394-5.586-3.59a2.983,2.983,0,0,0-1.4-.6,8.053,8.053,0,0,0-2.194,0c-3.791.2-7.182-1.8-10.174-3.989-6.383-4.589-10.174-11.97-15.36-17.954C701.1,875.61,700.9,878.2,700.5,880a4.243,4.243,0,0,0,0,1.6l-.6,13.566,1.994.6s-.6-7.78,1.6-11.969c2.394,1.8,4.189,3.99,7.182,6.782,2.793,2.792,4.788,6.184,7.979,8.578a18.028,18.028,0,0,0,5.187,2.593,61.432,61.432,0,0,0,17.754,3.791,1.2,1.2,0,0,0,.8-.2C742.4,904.935,742.2,904.337,742.2,903.937Z" transform="translate(-224.237 -362.734)" fill="#2e2014"/>
        <path id="Path_73" data-name="Path 73" d="M692.438,507.141c6.384-5.586,15.759-1.6,19.949,2.194s7.58,8.778,8.378,14.364c1,8.578-3.989,16.956-3.191,25.534.6,6.384,4.189,11.769,6.582,17.755a42.9,42.9,0,0,1,1.8,24.536c-1.2,4.788-3.192,9.775-7.182,12.767-4.189,3.192-9.974,3.99-15.161,3.192a19.1,19.1,0,0,1-8.778-3.59,19.928,19.928,0,0,1-6.782-10.573c-1.2-4.189-1.2-8.378-1.2-12.767" transform="translate(-222.954 -326.408)" fill="#49270b"/>
        <path id="Path_74" data-name="Path 74" d="M707.342,529.124c-2.593,4.987-1.6,11.172.4,16.358s4.987,9.974,7.182,15.161a43.255,43.255,0,0,1,2.195,21.943,19.093,19.093,0,0,1-3.591,8.778c-4.388,4.987-12.568,4.987-18.353,1.8-5.785-3.391-9.575-9.176-12.966-14.961" transform="translate(-222.497 -328.841)" fill="#351905"/>
        <path id="Path_75" data-name="Path 75" d="M706.551,539.628a13.433,13.433,0,0,1-.2,3.989c-2,11.57,0,22.742,2.793,33.913a6.588,6.588,0,0,1-4.388.4,183.7,183.7,0,0,1-21.944-12.568c-.2-.2-.4-.2-.4-.4-.4-.6.2-1.2.6-1.6a31.436,31.436,0,0,0,8.378-15.36,73.935,73.935,0,0,0,1.8-17.555" transform="translate(-222.504 -328.972)" fill="#f49987"/>
        <path id="Path_76" data-name="Path 76" d="M705.86,571.546c-7.381-.6-12.368-7.78-19.151-10.373a4.143,4.143,0,0,0-2.195-.2c-1,.2-1.6,1.2-2.195,2.194-2.992,4.987-5.585,9.974-8.178,15.161a44.366,44.366,0,0,0-4.189,11.172c-1.4,6.583-.8,13.366.6,19.949a143.04,143.04,0,0,0,5.387,20.148,6.564,6.564,0,0,0,1.4,2.593,5.117,5.117,0,0,0,2.394,1,215.036,215.036,0,0,0,31.718,5.387h1.4a3.276,3.276,0,0,0,1.4-2.195q2.992-11.669,5.984-23.34a40.054,40.054,0,0,0,1.6-9.575c0-4.389-2.593-7.381-4.788-10.973C711.844,583.116,709.649,579.924,705.86,571.546Z" transform="translate(-221.214 -331.965)" fill="#ff9e05"/>
        <path id="Path_77" data-name="Path 77" d="M706.229,641.739c5.387,13.365,10.972,26.931,18.951,39.1,3.391,4.987,6.983,9.775,10.374,14.762a119.482,119.482,0,0,1,17.155,38.9,41.56,41.56,0,0,0-37.9,12.568c-4.189,4.588-7.381,10.373-12.568,13.963-6.185,4.589-14.364,5.586-22.143,5.984a207.4,207.4,0,0,1-31.519-.6c7.182-9.576,8.578-22.143,8.179-33.913-.4-11.969-2.194-23.738-.6-35.508,1-7.581,3.591-14.961,6.185-22.343,4.189-11.769,8.777-23.34,13.565-34.91" transform="translate(-219.191 -339.718)" fill="#ff9e05"/>
        <g id="Group_1" data-name="Group 1" transform="translate(450.04 337.13)" opacity="0.52">
          <path id="Path_78" data-name="Path 78" d="M678.16,754.3c4.388.2,8.378-4.189,9.974-9.575s1-11.77-.2-17.754-3.192-11.57-4.589-17.355a107.611,107.611,0,0,1-3.192-28.726c-1.995,4.389-2.793,9.775-3.591,14.961-1.994,12.568-3.79,25.135-4.788,37.9C671.178,741.139,670.779,753.108,678.16,754.3Z" transform="translate(-671.483 -680.894)" fill="#ea8d07" opacity="0.52" style="isolation: isolate"/>
        </g>
        <g id="Group_2" data-name="Group 2" transform="translate(485.581 308.803)" opacity="0.52">
          <path id="Path_79" data-name="Path 79" d="M726.321,721.093c4.389-.8,7.182-5.984,7.381-11.57s-1.6-11.769-4.189-17.155-5.785-10.573-8.378-15.759a110.375,110.375,0,0,1-9.775-27.13c-.8,4.788-.4,10.174,0,15.361,1,12.568,2,25.334,4.189,37.9C716.547,709.723,718.94,721.692,726.321,721.093Z" transform="translate(-710.899 -649.478)" fill="#ea8d07" opacity="0.52" style="isolation: isolate"/>
        </g>
        <g id="Group_3" data-name="Group 3" transform="translate(459.589 250.354)" opacity="0.52">
          <path id="Path_80" data-name="Path 80" d="M683.79,589.841a59.793,59.793,0,0,0,2.393,35.908c1.2,2.992,2.594,5.984,5.187,7.78,3.79,2.992,9.176,3.192,14.164,2.992a4.457,4.457,0,0,0,2.792-.6c.6-.4.8-1.2,1.2-1.8,1.4-3.591,27.13-18.752-9.176-49.473" transform="translate(-682.073 -584.655)" fill="#ea8d07" opacity="0.52" style="isolation: isolate"/>
        </g>
        <path id="Path_81" data-name="Path 81" d="M707.463,571.911a60.123,60.123,0,0,0,1.994,13.365c.2.6,0,1.6-.6,1.6a.732.732,0,0,1-.6-.2c-5.586-3.192-10.972-6.384-16.557-9.575a49.2,49.2,0,0,1-5.386-3.392c-.4-.2-.6-.6-.8-.8-.2-.4.2-1,.4-1.4,1.2-2,2.593-3.791,3.79-5.785a2.4,2.4,0,0,1,1-1c1-.4,1.995.2,2.992.8a31.136,31.136,0,0,0,13.366,5.984" transform="translate(-222.817 -332.329)" fill="#e88c07"/>
        <path id="Path_82" data-name="Path 82" d="M678.05,639.744s32.716,4.788,37.5,2.394l.6,4.787s-26.132,2.594-39.7-1.995Z" transform="translate(-221.932 -339.718)" fill="#ff5e2c"/>
        <path id="Path_83" data-name="Path 83" d="M720.642,633.711c2.792-1-5.586-21.744-9.576-32.317A46.626,46.626,0,0,0,697.1,581.446c-1.6-1.4-3.591-2.792-5.586-2.992-4.388-.6-8.578,3.191-9.576,7.58s0,8.777,1.4,13.165a122.629,122.629,0,0,0,21.744,38.9,3.574,3.574,0,0,0,1.4,1,2.454,2.454,0,0,0,1.994-.4C712.862,636.5,716.452,635.507,720.642,633.711Z" transform="translate(-222.431 -333.686)" fill="#f99906"/>
        <path id="Path_84" data-name="Path 84" d="M681.543,532.354c3.791,7.58,9.575,14.163,17.555,17.355,3.192,1.4,7.78,2.993,11.171,1.8,2.793-1,4.189-5.386,5.386-8.179a27.591,27.591,0,0,0,1.995-9.774c-.4-8.179-1.2-13.765-6.982-19.55-5.984-6.184-17.156.2-25.135-1.2" transform="translate(-222.432 -327.084)" fill="#ffaa95"/>
        <path id="Path_85" data-name="Path 85" d="M722.672,524.753c-2.194-1.2-1-2.195-6.383-1-.2,0-1.8.4-1.8.6-.2.4-.2.8.2,1a2.521,2.521,0,0,0,1.2.2,10.928,10.928,0,0,0,3.391-1A4.9,4.9,0,0,1,722.672,524.753Z" transform="translate(-225.659 -328.26)" fill="#49270b"/>
        <path id="Path_86" data-name="Path 86" d="M699.906,528.745c1.8-1.995.2-2.394,5.785-3.391.2,0,1.8-.2,1.994,0,.4.2.4.6.2,1a1.1,1.1,0,0,1-1,.6,11.032,11.032,0,0,1-3.59.4C701.9,527.548,700.7,527.747,699.906,528.745Z" transform="translate(-224.237 -328.462)" fill="#351905"/>
        <path id="Path_87" data-name="Path 87" d="M717.4,543.284a93.951,93.951,0,0,1-9.974,1.6,8.7,8.7,0,0,0,2.793,2.594,5.757,5.757,0,0,0,3.591.6A6.359,6.359,0,0,0,717.4,543.284Z" transform="translate(-224.977 -330.233)" fill="#fff"/>
        <path id="Path_88" data-name="Path 88" d="M715.294,529.958a4.707,4.707,0,0,1,1.8-1.2c.6-.2,1.4-.4,1.8.2a.5.5,0,1,0,.8-.6,2.26,2.26,0,0,0-2.593-.8,11.321,11.321,0,0,0-2.593,1.6C714.1,529.758,714.895,530.556,715.294,529.958Z" transform="translate(-225.661 -328.678)" fill="#f49987"/>
        <path id="Path_89" data-name="Path 89" d="M705.085,531.977c0-.2,0-.2.2-.4a.2.2,0,0,1,.2-.2h0l.2-.2.2-.2c.2,0,.4-.2.6-.2h1c.4.2.8.2,1.2.4a.446.446,0,1,0,.4-.8,5.734,5.734,0,0,0-3.191-.6,2.969,2.969,0,0,0-1.4.6,1.722,1.722,0,0,0-.6,1.2c0,.2.2.6.4.6C704.686,532.375,705.085,532.176,705.085,531.977Z" transform="translate(-224.629 -328.901)" fill="#f49987"/>
        <path id="Path_90" data-name="Path 90" d="M705.223,540.861c2.2,0,3.99-1.341,3.99-2.993s-1.785-2.993-3.99-2.993-3.99,1.341-3.99,2.993S703.018,540.861,705.223,540.861Z" transform="translate(-224.368 -329.407)" fill="#f24d20" opacity="0.34" style="isolation: isolate"/>
        <path id="Path_91" data-name="Path 91" d="M720.931,533.107c-2.195,0-3.99,1.4-3.99,2.992s1.6,2.993,3.791,2.993A32.279,32.279,0,0,0,720.931,533.107Z" transform="translate(-225.912 -329.233)" fill="#f24d20" opacity="0.34" style="isolation: isolate"/>
        <path id="Path_92" data-name="Path 92" d="M712.074,529.059a10.36,10.36,0,0,0,4.788,7.98c0-.2-.2-.4-.2-.6a10.44,10.44,0,0,1-2.195,1.995c-.6.4,0,1.2.6.8a6.863,6.863,0,0,0,2.393-2.393.382.382,0,0,0-.2-.6,9.351,9.351,0,0,1-4.189-7.182C713.071,528.261,712.074,528.261,712.074,529.059Z" transform="translate(-225.434 -328.776)" fill="#f49987"/>
        <path id="Path_93" data-name="Path 93" d="M644.82,601.734c8.977-1,16.158-7.78,22.542-14.163,4.788-4.788,9.775-9.974,11.171-16.757.8-3.99.4-7.98.2-11.97a56.042,56.042,0,0,1,9.176-31.718c3.191-4.787,7.181-9.176,9.774-14.363a31.214,31.214,0,0,0,2.394-5.984,11.874,11.874,0,0,1,1.8,2.993c2,11.969-7.58,22.94-7.181,35.109.2,4.787,1.8,9.376,2.792,14.163,1.4,7.181,1.2,14.961-2.394,21.344-2.992,4.987-7.78,8.778-10.373,13.964-2.993,6.184-2,13.565-4.389,20.148a22.183,22.183,0,0,1-8.778,11.172,19.428,19.428,0,0,1-7.98,2.992c-8.777,1.8-18.751-.6-25.135-6.982-6.184-5.984-9.176-15.161-7.181-23.34A22.994,22.994,0,0,0,644.82,601.734Z" transform="translate(-217.427 -326.644)" fill="#351905"/>
        <path id="Path_94" data-name="Path 94" d="M645.042,570.16c1.6-7.78-1.4-16.358,2.195-23.34,2.792-5.387,8.977-8.378,12.368-13.565,1.994-2.993,2.792-6.583,3.79-9.974,1.8-5.586,3.99-10.972,7.98-15.361,3.79-4.388,9.176-7.58,14.961-7.78,4.588-.2,10.373,2.394,13.565,6.184a31.246,31.246,0,0,1-2.394,5.984c-2.792,5.187-6.583,9.576-9.775,14.364a56.051,56.051,0,0,0-9.176,31.718c0,3.99.6,8.179-.2,11.969-1.4,6.583-6.384,11.969-11.171,16.757-6.384,6.384-13.566,13.166-22.542,14.163a22.709,22.709,0,0,1-13.765-3.59c.2-.4.2-1,.4-1.4C634.47,586.718,643.048,579.735,645.042,570.16Z" transform="translate(-217.45 -325.99)" fill="#49270b"/>
        <path id="Path_95" data-name="Path 95" d="M758.511,726.439l-2.195-.2c0-.2,1-11.371-3.591-16.159a7.518,7.518,0,0,0-5.785-2.194,9.52,9.52,0,0,0-6.782,3.192c-4.588,5.186-3.99,15.161-3.99,15.161l-2.194.2c0-.4-.6-10.772,4.588-16.757a11.693,11.693,0,0,1,8.179-3.791,9.5,9.5,0,0,1,7.58,2.793C759.708,714.07,758.71,725.84,758.511,726.439Z" transform="translate(-227.585 -346.22)" fill="#014385"/>
        <path id="Path_96" data-name="Path 96" d="M763.821,726.417l-2.195-.2c0-.2,1-11.371-3.59-16.159a7.518,7.518,0,0,0-5.785-2.194,9.52,9.52,0,0,0-6.782,3.192c-4.589,5.186-3.99,15.161-3.99,15.161h-2.195c0-.4-.6-10.772,4.589-16.757a11.689,11.689,0,0,1,8.179-3.791,9.5,9.5,0,0,1,7.58,2.793C764.818,714.049,763.821,725.818,763.821,726.417Z" transform="translate(-228.107 -346.198)" fill="#014385"/>
        <path id="Path_97" data-name="Path 97" d="M784.917,815.211l-7.182-60.644c-6.184,20.148-23.938,58.648-71.216,60.644l-.2,1.6a2.356,2.356,0,0,0,2.394,2.593h72.613A3.735,3.735,0,0,0,784.917,815.211Z" transform="translate(-224.866 -351.009)" fill="rgba(0,132,255,0.85)"/>
        <path id="Path_98" data-name="Path 98" d="M777.759,752l-2.593-21.145a2.753,2.753,0,0,0-2.593-2.394H716.517a2.55,2.55,0,0,0-2.394,2.194l-7.58,82.188C753.821,810.648,771.575,772.148,777.759,752Z" transform="translate(-224.89 -348.442)" fill="#0084ff"/>
        <path id="Path_99" data-name="Path 99" d="M771.419,716.982l-1.994.8c0-.2-4.589-10.373-10.972-12.368a7,7,0,0,0-6.185,1,8.921,8.921,0,0,0-4.388,5.984c-1.6,6.783,3.59,15.162,3.791,15.361l-1.8,1.2c-.2-.4-5.785-9.176-3.989-16.956a11.888,11.888,0,0,1,5.386-7.381,9.5,9.5,0,0,1,7.98-1.2C766.432,705.811,771.22,716.584,771.419,716.982Z" transform="translate(-228.724 -345.94)" fill="#014385"/>
        <path id="Path_100" data-name="Path 100" d="M776.065,714.548l-1.994.8c0-.2-4.589-10.373-10.972-12.367a7,7,0,0,0-6.185,1,8.919,8.919,0,0,0-4.388,5.984c-1.6,6.782,3.59,15.161,3.791,15.36l-1.8,1.2c-.2-.4-5.784-9.176-3.989-16.957a11.889,11.889,0,0,1,5.386-7.38,9.5,9.5,0,0,1,7.98-1.2C771.078,703.178,775.866,714.15,776.065,714.548Z" transform="translate(-229.18 -345.701)" fill="#014385"/>
        <path id="Path_101" data-name="Path 101" d="M839.525,779.659l-35.309-49.871c4.189,20.547,6.982,62.838-33.514,87.175l.6,1.4a2.566,2.566,0,0,0,3.391,1.2l63.836-34.711A3.416,3.416,0,0,0,839.525,779.659Z" transform="translate(-231.199 -348.572)" fill="#003968"/>
        <path id="Path_102" data-name="Path 102" d="M800.644,727.751,788.276,710.2a2.545,2.545,0,0,0-3.391-.8l-49.273,26.731a2.267,2.267,0,0,0-1,2.993l32.516,75.8C807.626,790.789,805.033,748.3,800.644,727.751Z" transform="translate(-227.627 -346.535)" fill="#014385"/>
        <path id="Path_103" data-name="Path 103" d="M723.579,639.744c3.391,7.78,5.187,12.966,8.578,20.747s6.782,15.36,10.174,23.14a15.809,15.809,0,0,0,2.993,4.987,20.685,20.685,0,0,0,3.391,2.394A23.866,23.866,0,0,1,754.3,696.4a3.588,3.588,0,0,1,.8,1.8c-.2,1.6-2.993,1.8-3.391,3.59-.4,1.4,1.6,2.394,1.8,3.99.4,1.8-1.8,2.993-3.591,3.591-1.994.6-3.989,1.4-5.984,2a8.009,8.009,0,0,1-2.992.6c-2.394-.2-3.99-2.992-4.189-5.386-.4-3.192.4-6.384.2-9.775-.4-3.99-2.593-7.78-4.589-11.37-9.774-16.358-16.158-26.532-20.946-40.7" transform="translate(-225.369 -339.718)" fill="#ffaa95"/>
      </g>
      <g id="Group_6" data-name="Group 6" transform="translate(469.056 795.227)">
        <path id="Path_48" data-name="Path 48" d="M568.5,777.6H492.9a15.58,15.58,0,0,1-15.56-15.56v-3.192a15.58,15.58,0,0,1,15.56-15.559h75.6a15.579,15.579,0,0,1,15.56,15.559v3.192A15.58,15.58,0,0,1,568.5,777.6Z" transform="translate(-477.339 -743.284)" fill="#0084ff"/>
        <text id="_" data-name="ဝယ်ယူမယ်" transform="translate(20.999 18.859)" fill="#fff" font-size="13" font-family="NotoSansMyanmar-Regular, Noto Sans Myanmar"><tspan x="0" y="0">ဝယ်ယူမယ်</tspan></text>
      </g>
    </g>
    <g id="Group_8" data-name="Group 8" transform="translate(838.219 1345.681) rotate(132)" style="isolation: isolate">
      <path id="Path_104-2" data-name="Path 104" d="M770.858,1814.616c-272.015-49.81-489.627-239.849-598.929-517.054C61.64,1021.437,88.841,684.675,241.17,432.914c35.115-57.931,76.659-111.531,125.622-154.845C510.217,152.46,719.917,125.931,885.106,212.556c49.456,25.99,96.44,62.806,124.137,114.782,20.278,38.439,29.675,82.837,49.458,121.278,31.157,60.1,86.551,100.161,143.92,129.4,57.371,28.7,118.7,48.188,175.08,78.506,193.378,103.954,318.01,355.171,270.532,584.734-22.256,107.2-77.154,203.031-142.437,285.868-128.59,162.427-316.034,284.786-511.885,270.17" transform="translate(0 0)" fill="#007dff" opacity="0.09" style="isolation: isolate"/>
    </g>
  </g>
</svg>
