<svg xmlns="http://www.w3.org/2000/svg" xmlns:xlink="http://www.w3.org/1999/xlink" width="1000" height="1000" viewBox="0 0 1000 1000">
  <defs>
    <filter id="Path_1" x="146" y="883.957" width="794.178" height="116.743" filterUnits="userSpaceOnUse">
      <feOffset dy="3" input="SourceAlpha"/>
      <feGaussianBlur stdDeviation="14" result="blur"/>
      <feFlood flood-opacity="0.161"/>
      <feComposite operator="in" in2="blur"/>
      <feComposite in="SourceGraphic"/>
    </filter>
    <filter id="Path_38" x="442.602" y="578.938" width="89.239" height="89.239" filterUnits="userSpaceOnUse">
      <feOffset dy="3" input="SourceAlpha"/>
      <feGaussianBlur stdDeviation="3" result="blur-2"/>
      <feFlood flood-opacity="0.161"/>
      <feComposite operator="in" in2="blur-2"/>
      <feComposite in="SourceGraphic"/>
    </filter>
    <filter id="Path_41" x="559.157" y="577.437" width="89.253" height="89.254" filterUnits="userSpaceOnUse">
      <feOffset dy="3" input="SourceAlpha"/>
      <feGaussianBlur stdDeviation="3" result="blur-3"/>
      <feFlood flood-opacity="0.161"/>
      <feComposite operator="in" in2="blur-3"/>
      <feComposite in="SourceGraphic"/>
    </filter>
    <filter id="Shopping_Time" x="197" y="94" width="638" height="184" filterUnits="userSpaceOnUse">
      <feOffset dy="3" input="SourceAlpha"/>
      <feGaussianBlur stdDeviation="3" result="blur-4"/>
      <feFlood flood-opacity="0.161"/>
      <feComposite operator="in" in2="blur-4"/>
      <feComposite in="SourceGraphic"/>
    </filter>
    <clipPath id="clip-custom_1">
      <rect width="1000" height="1000"/>
    </clipPath>
  </defs>
  <g id="custom_1" data-name="custom – 1" clip-path="url(#clip-custom_1)">
    <rect width="1000" height="1000" fill="#fff"/>
    <g id="Group_5" data-name="Group 5" transform="translate(-194.771 -319.897) rotate(-24)" style="isolation: isolate">
      <path id="Path_104" data-name="Path 104" d="M603.079,1231.1c-203.5-32.223-366.3-155.162-448.069-334.49-82.51-178.63-62.16-396.485,51.8-559.354,26.27-37.476,57.35-72.151,93.98-100.172,107.3-81.258,264.179-98.42,387.759-42.381,37,16.813,72.149,40.63,92.869,74.254,15.17,24.867,22.2,53.588,37,78.457,23.309,38.877,64.75,64.8,107.669,83.709,42.92,18.564,88.8,31.174,130.98,50.787,144.669,67.249,237.909,229.766,202.39,378.273-16.65,69.35-57.72,131.344-106.56,184.932-96.2,105.076-236.431,184.233-382.95,174.777" transform="translate(0 0)" fill="#007dff" opacity="0.09" style="isolation: isolate"/>
    </g>
    <g id="Group_4" data-name="Group 4" transform="translate(15.635 39)">
      <g transform="matrix(1, 0, 0, 1, -15.63, -39)" filter="url(#Path_1)" style="isolation: isolate">
        <path id="Path_1-2" data-name="Path 1" d="M501.454,924.7c196.111,0,355.089-7.33,355.089-16.372s-158.978-16.371-355.089-16.371-355.089,7.329-355.089,16.371S305.344,924.7,501.454,924.7Z" transform="translate(41.63 31)" fill="#014385" opacity="0.09"/>
      </g>
      <path id="Path_2" data-name="Path 2" d="M637.074,547.487c3.982-12.389,11.062-23.673,18.584-34.292,7.965-11.062,15.929-22.124,25.221-32.08a325.148,325.148,0,0,1,25.664-23.672c9.071-7.522,18.142-14.823,26.77-22.788a160.47,160.47,0,0,0,23.009-25.885c.885-1.106,1.549-2.434,2.433-3.54.664-1.106-1.106-2.212-1.769-1.106a142.224,142.224,0,0,1-22.346,26.549c-8.407,8.186-17.477,15.486-26.548,23.009a328.71,328.71,0,0,0-26.107,23.451c-9.513,9.735-17.477,20.575-25.442,31.416-7.522,10.619-15.044,21.46-19.912,33.85-.663,1.548-1.106,3.1-1.548,4.424C634.862,548.151,636.853,548.815,637.074,547.487Z" fill="#6c757d"/>
      <path id="Path_3" data-name="Path 3" d="M756.1,408.991c-1.77-9.734.442-19.911,4.2-28.982s8.85-17.7,13.275-26.549a161.456,161.456,0,0,0,12.61-34.513,392.223,392.223,0,0,1-5.973,39.823C776.9,376.248,768.932,396.6,756.1,408.991Z" fill="#6c757d"/>
      <path id="Path_4" data-name="Path 4" d="M732.428,435.761c7.522-7.743,18.142-11.5,28.54-14.38,10.4-2.655,20.8-5.531,30.752-9.956,13.717-5.974,17.7-8.628,31.859-19.912-7.523,15.93-21.682,28.319-37.832,35.4-16.151,7.3-37.39,10.84-55.089,10.4" fill="#6c757d"/>
      <path id="Path_5" data-name="Path 5" d="M719.375,445.938c.664-7.743-3.54-15.044-5.974-22.566a56.7,56.7,0,0,1-2.654-21.018c.442-7.08,2.433-13.938,4.2-20.575,4.646-16.814,9.292-33.85,13.938-50.664-1.77,19.027-.221,38.274-.442,57.522,0,19.248,0,39.6-8.186,57.08" fill="#6c757d"/>
      <path id="Path_6" data-name="Path 6" d="M697.03,464.744c7.964-5.974,19.69-6.638,29.646-7.08s19.911.442,29.867-.221c17.7-1.328,34.513-7.744,51.106-14.16-9.292,10.4-19.247,21.018-32.3,26.107a60.317,60.317,0,0,1-14.159,3.539,109.517,109.517,0,0,1-41.593-1.991c-6.858-1.77-16.372-4.425-23.451-4.646" fill="#6c757d"/>
      <path id="Path_7" data-name="Path 7" d="M683.755,477.354a54.623,54.623,0,0,1-11.947-35.619,89.617,89.617,0,0,1,1.549-15.487c3.1-22.124,6.2-44.469,9.292-66.593,5.974,23.673,11.947,48.009,7.965,72.124-2.434,15.044-6.859,30.531-5.531,45.575" fill="#6c757d"/>
      <path id="Path_8" data-name="Path 8" d="M667.384,496.381c7.079-5.974,17.035-6.859,26.327-5.752,9.071,1.106,18.142,3.982,27.213,3.982,16.593,0,32.743-8.628,49.336-7.08-14.6,13.717-35.841,20.354-55.752,17.7C699.242,503.018,682.649,495.053,667.384,496.381Z" fill="#6c757d"/>
      <path id="Path_9" data-name="Path 9" d="M658.313,509.434c-2.434-5.089-6.637-9.292-9.735-13.938-7.522-11.726-8.628-26.549-7.743-40.487s3.761-27.876,2.876-41.814c6.416,14.159,8.628,30.088,10.841,45.575.885,6.637,1.991,13.274,1.991,20.133C656.985,489.3,660.3,498.814,658.313,509.434Z" fill="#ff9e05"/>
      <path id="Path_10" data-name="Path 10" d="M652.118,522.045c4.867-5.31,13.275-3.983,20.354-2.434a291.547,291.547,0,0,0,60.4,6.2C708.755,539.522,673.8,539.522,652.118,522.045Z" fill="#ff9e05"/>
      <path id="Path_11" data-name="Path 11" d="M645.7,525.584c-7.079-5.973-14.159-11.947-18.363-20.132-3.761-7.523-4.867-16.372-5.309-24.779a162.691,162.691,0,0,1,0-23.23c9.513,20.354,19.911,44.911,24.115,67.035" fill="#ff9e05"/>
      <path id="Path_12" data-name="Path 12" d="M437.516,578.018c-11.283-6.858-20.354-16.372-28.761-26.327-8.85-10.177-17.7-20.8-25.221-32.08-6.416-9.735-11.726-20.133-16.814-30.531-5.089-10.62-10.177-21.239-15.93-31.416a154.562,154.562,0,0,0-19.69-28.319,39.593,39.593,0,0,0-2.876-3.1c-.885-.885-2.212.442-1.328,1.549a147.55,147.55,0,0,1,20.354,27.876c5.753,10.177,10.841,20.8,15.93,31.2a319.552,319.552,0,0,0,16.593,30.973c7.079,11.5,15.708,21.9,24.557,32.08,8.407,9.955,17.257,19.911,28.1,27.433l3.982,2.655C437.737,580.452,438.622,578.682,437.516,578.018Z" fill="#6c757d"/>
      <path id="Path_13" data-name="Path 13" d="M331.321,429.567c-9.956-.443-19.248-5.089-27.212-11.062-7.965-5.753-15.044-12.832-22.567-19.248A156.136,156.136,0,0,0,251.011,378.9a389.706,389.706,0,0,1,37.39,15.265C304.33,401.69,322.25,414.3,331.321,429.567Z" fill="#6c757d"/>
      <path id="Path_14" data-name="Path 14" d="M351.675,458.991c-5.752-9.07-6.858-20.354-7.079-31.194s-.443-21.461-2.213-32.08c-2.433-14.823-4.2-19.248-11.725-35.62C344.374,371.159,353,387.974,356.1,405.23s1.77,38.938-2.876,55.974" fill="#6c757d"/>
      <path id="Path_15" data-name="Path 15" d="M358.534,474.036c-7.522-2.434-15.487-.222-23.23.442a55.992,55.992,0,0,1-21.018-2.434c-6.637-2.212-12.832-5.531-19.027-9.07-15.265-8.407-30.752-17.036-46.018-25.443,18.142,6.416,37.169,9.513,55.753,14.159s38.5,9.293,53.54,21.461" fill="#6c757d"/>
      <path id="Path_16" data-name="Path 16" d="M371.587,500.363c-3.983-9.292-1.77-20.575.221-30.531,1.991-9.734,5.31-19.248,6.858-29.2,2.877-17.478.664-35.4-1.548-53.1,7.743,11.505,15.929,23.673,17.7,37.39a64.459,64.459,0,0,1,0,14.6,110.13,110.13,0,0,1-11.726,40.045c-3.318,6.416-8.186,14.823-10.177,21.681" fill="#6c757d"/>
      <path id="Path_17" data-name="Path 17" d="M380.436,516.071a54.531,54.531,0,0,1-37.389,3.1,117.08,117.08,0,0,1-14.823-5.088c-20.8-8.407-41.593-16.593-62.39-25,24.337-.221,49.558,0,71.9,9.513,13.938,5.974,27.876,13.938,42.921,16.151" fill="#6c757d"/>
      <path id="Path_18" data-name="Path 18" d="M395.259,536.646c-4.2-8.185-2.433-18.141.664-26.77,3.319-8.628,8.186-16.593,10.4-25.663,3.983-16.151-.663-33.85,4.868-49.558a68,68,0,0,1,3.761,58.186C409.2,507.222,397.472,521.381,395.259,536.646Z" fill="#ff9e05"/>
      <path id="Path_19" data-name="Path 19" d="M405.658,548.372c-5.531,1.106-10.4,4.2-15.93,5.973-13.274,4.646-27.876,2.213-41.15-2.212-13.274-4.2-26.106-10.177-40.044-12.832,15.486-2.876,31.194-1.327,46.681.221a148.84,148.84,0,0,1,19.912,2.877C385.746,545.053,395.7,544.168,405.658,548.372Z" fill="#6c757d"/>
      <path id="Path_20" data-name="Path 20" d="M416.5,557.443c-3.982-5.974-.663-13.938,2.434-20.354a294.433,294.433,0,0,0,20.354-57.3C446.808,506.558,438.622,540.407,416.5,557.443Z" fill="#ff9e05"/>
      <path id="Path_21" data-name="Path 21" d="M418.268,564.522c-7.3,5.31-15.044,10.841-23.894,13.054-8.185,1.991-17.035.885-25.221-.664a152.779,152.779,0,0,1-22.566-5.531c22.124-4.425,48.451-8.628,70.8-7.522" fill="#6c757d"/>
      <path id="Path_22" data-name="Path 22" d="M629.331,900.142H422.693A38.995,38.995,0,0,1,383.755,861.2V347.929A40.978,40.978,0,0,1,424.684,307H622.915a46.926,46.926,0,0,1,46.9,46.9V859.434A40.412,40.412,0,0,1,629.331,900.142Z" fill="#cae2fb"/>
      <path id="Path_23" data-name="Path 23" d="M561.631,338.637H495.038a5.857,5.857,0,0,1-5.752-5.752v-1.106a5.857,5.857,0,0,1,5.752-5.752h66.593a5.857,5.857,0,0,1,5.753,5.752v1.106A5.712,5.712,0,0,1,561.631,338.637Z" fill="#94ccfb"/>
      <path id="Path_24" data-name="Path 24" d="M527.816,889.13a18.142,18.142,0,1,0-18.142-18.142A18.141,18.141,0,0,0,527.816,889.13Z" fill="#94ccfb"/>
      <path id="Path_25" data-name="Path 25" d="M660.525,426.69V357.443H393.932v354.2C558.755,730.673,635.525,516.956,660.525,426.69Z" fill="#fff" opacity="0.87" style="isolation: isolate"/>
      <path id="Path_26" data-name="Path 26" d="M393.932,711.647V838.859H660.525V426.69C635.525,516.956,558.755,730.673,393.932,711.647Z" fill="#fff" opacity="0.84" style="isolation: isolate"/>
      <path id="Path_27" data-name="Path 27" d="M660.968,455.894l-39.381-98.451H439.065l-44.691,98.451a57.477,57.477,0,0,0-.663,8.85c0,22.345,11.725,40.486,26.106,40.486,11.726,0,21.9-12.168,25-28.761v.221c3.761,16.593,15.487,28.54,29.2,28.54,14.38,0,26.548-13.5,29.646-31.416,2.876,17.921,13.495,31.416,26.548,31.416,12.168,0,22.567-11.947,26.107-28.318.221.442.221,1.106.442,1.548,4.2,15.708,15.487,26.77,28.761,26.77,14.159,0,25.885-12.61,29.425-29.867v.221C617.6,492.62,626.9,505.23,637.738,505.23c13.053,0,23.672-18.141,23.672-40.486A59.369,59.369,0,0,0,660.968,455.894Z" fill="#d3d5dd" opacity="0.87" style="isolation: isolate"/>
      <path id="Path_28" data-name="Path 28" d="M510.525,357.443l-9.513,77.212h58.407l-8.85-77.212Z" fill="#2d9aff"/>
      <path id="Path_29" data-name="Path 29" d="M465.171,357.443l-28.319,77.212h64.16l9.513-77.212Z" fill="#fff"/>
      <path id="Path_30" data-name="Path 30" d="M431.321,357.443,382.87,434.655H437.3l27.876-77.212Z" fill="#2d9aff"/>
      <path id="Path_31" data-name="Path 31" d="M670.924,434.655l-42.7-77.212h-35.4l28.1,77.212Z" fill="#2d9aff"/>
      <path id="Path_32" data-name="Path 32" d="M592.826,357.443H550.569l8.407,77.212h62.39Z" fill="#fff"/>
      <path id="Path_33" data-name="Path 33" d="M437.3,434.655l.442,16.372a32.642,32.642,0,0,0,31.416,22.345c15.708,0,28.761-10.62,32.08-24.558l-.442-14.159Z" fill="#efeded"/>
      <path id="Path_34" data-name="Path 34" d="M382.87,434.655a34.383,34.383,0,0,0-.664,6.858c0,17.478,12.611,31.859,28.319,31.859,12.832,0,23.673-9.513,26.991-22.566v.221l-.442-16.372Z" fill="#0084ff"/>
      <path id="Path_35" data-name="Path 35" d="M501.012,434.655l.442,14.159c3.1,14.16,14.6,24.558,28.761,24.558,13.275,0,24.337-9.292,28.1-22.345.221.442.221.885.442,1.327l.443-17.7Z" fill="#0084ff"/>
      <path id="Path_36" data-name="Path 36" d="M670.924,434.655H621.366v15.487c3.1,13.495,12.832,23.23,24.557,23.23,14.16,0,25.443-14.159,25.443-31.859A23.918,23.918,0,0,0,670.924,434.655Z" fill="#0084ff"/>
      <path id="Path_37" data-name="Path 37" d="M558.976,434.655l-.442,17.7a33.349,33.349,0,0,0,62.832-2.433V434.434h-62.39Z" fill="#efeded"/>
      <g transform="matrix(1, 0, 0, 1, -15.63, -39)" filter="url(#Path_38)">
        <path id="Path_38-2" data-name="Path 38" d="M471.587,617.177a35.62,35.62,0,1,0-35.62-35.619A35.617,35.617,0,0,0,471.587,617.177Z" transform="translate(15.63 39)" fill="#fff"/>
      </g>
      <path id="Path_39" data-name="Path 39" d="M447.472,576.912c4.425,1.327,7.964,3.982,13.274,7.3,4.2,2.433,7.3,5.973,11.726,7.743a23.791,23.791,0,0,0,6.858,1.549,82.329,82.329,0,0,0,22.124-.443.884.884,0,0,0,.885-.442,1.465,1.465,0,0,0-.221-1.328c-1.327-1.991-3.761-2.876-5.973-3.539-2.434-.885-5.089-1.77-7.523-2.655a5.208,5.208,0,0,0-1.77-.443,7.848,7.848,0,0,0-2.433.664c-4.425,1.327-9.071,0-13.275-1.77-8.849-3.761-15.486-11.283-23.23-16.814-2.212,2.655-1.548,5.752-1.548,7.964a4.169,4.169,0,0,0,.442,1.77C446.587,576.691,447.029,576.691,447.472,576.912Z" fill="#2e2014"/>
      <path id="Path_40" data-name="Path 40" d="M446.366,576.248l2.876,16.151,2.433.221s-3.539-11.062-.885-16.151" fill="#2e2014"/>
      <g transform="matrix(1, 0, 0, 1, -15.63, -39)" filter="url(#Path_41)">
        <path id="Path_41-2" data-name="Path 41" d="M623.3,585.8a35.621,35.621,0,1,0-40.892,29.423A35.622,35.622,0,0,0,623.3,585.8Z" transform="translate(15.63 39)" fill="#fff"/>
      </g>
      <path id="Path_42" data-name="Path 42" d="M593.932,571.6l1.77-6.2,1.77,1.992,4.646-1.549-6.416-9.071-6.416-2.434-.885,7.965-1.106-7.965-6.416,2.434-6.416,9.071,4.646,1.549,1.77-1.992,1.77,6.2-9.071,28.1H603Z" fill="#ff9e05"/>
      <path id="Path_43" data-name="Path 43" d="M642.162,653.239H413.4v45.8H642.162Z" fill="#0084ff"/>
      <path id="Path_44" data-name="Path 44" d="M422.914,663.638h201.77c2.655,0,5.531.221,8.186,0h.443a.664.664,0,0,0,0-1.328H431.764c-2.655,0-5.531-.221-8.186,0h-.442C422.251,662.531,422.251,663.638,422.914,663.638Z" fill="#fff"/>
      <path id="Path_45" data-name="Path 45" d="M422.914,672.045h201.77c2.655,0,5.531.221,8.186,0h.443a.664.664,0,0,0,0-1.328H431.764c-2.655,0-5.531-.221-8.186,0h-.442C422.251,670.717,422.251,672.045,422.914,672.045Z" fill="#fff"/>
      <path id="Path_46" data-name="Path 46" d="M422.914,680.231h201.77c2.655,0,5.531.221,8.186,0h.443a.664.664,0,0,0,0-1.328H431.764c-2.655,0-5.531-.221-8.186,0h-.442C422.251,679.124,422.251,680.231,422.914,680.231Z" fill="#fff"/>
      <path id="Path_47" data-name="Path 47" d="M422.914,688.638h201.77c2.655,0,5.531.221,8.186,0h.443a.664.664,0,0,0,0-1.328H431.764c-2.655,0-5.531-.221-8.186,0h-.442C422.251,687.532,422.251,688.638,422.914,688.638Z" fill="#fff"/>
      <path id="Path_48" data-name="Path 48" d="M578.445,781.337H494.6a17.279,17.279,0,0,1-17.257-17.257v-3.54A17.279,17.279,0,0,1,494.6,743.284h83.849A17.278,17.278,0,0,1,595.7,760.54v3.54A17.279,17.279,0,0,1,578.445,781.337Z" fill="#0084ff"/>
      <path id="Path_49" data-name="Path 49" d="M312.3,647.487l-2.876-1.548c0-.222,7.743-15.487,3.982-25a10.827,10.827,0,0,0-7.08-6.415,14.235,14.235,0,0,0-11.283.663c-9.513,4.646-14.381,19.027-14.381,19.248l-3.1-1.106c.221-.664,5.31-15.708,15.929-21.018a16.983,16.983,0,0,1,13.938-.664,14.548,14.548,0,0,1,9.071,8.186C320.923,630.894,312.737,646.824,312.3,647.487Z" fill="#014385"/>
      <path id="Path_50" data-name="Path 50" d="M318.932,650.363l-2.876-1.548c0-.222,7.964-15.487,3.982-25a10.823,10.823,0,0,0-7.08-6.416,14.235,14.235,0,0,0-11.283.663c-9.513,4.646-14.38,19.027-14.38,19.248l-3.1-1.106c.222-.664,5.31-15.708,15.93-21.018a16.978,16.978,0,0,1,13.938-.663,14.545,14.545,0,0,1,9.07,8.185C327.56,633.549,319.374,649.478,318.932,650.363Z" fill="#014385"/>
      <path id="Path_51" data-name="Path 51" d="M305.215,783.107l24.558-89.823C309.64,718.063,262.3,762.31,194.6,738.2l-1.106,2.213a3.718,3.718,0,0,0,1.77,5.088l102.434,41.593A5.974,5.974,0,0,0,305.215,783.107Z" fill="rgba(0,132,255,0.76)"/>
      <path id="Path_52" data-name="Path 52" d="M329.773,693.284l8.628-31.416A4.2,4.2,0,0,0,335.967,657l-79.2-32.079a3.667,3.667,0,0,0-4.646,1.77L194.374,738.2C262.3,762.31,309.64,718.063,329.773,693.284Z" fill="#0084ff"/>
      <path id="Path_53" data-name="Path 53" d="M343.711,596.16l-1.107.442s-2.433-5.752-6.194-6.858a4.145,4.145,0,0,0-3.54.442,5.1,5.1,0,0,0-2.434,3.319c-.885,3.761,1.991,8.407,1.991,8.628l-.885.664c-.221-.221-3.318-5.089-2.212-9.513a6.485,6.485,0,0,1,3.1-4.2,5.327,5.327,0,0,1,4.425-.664C341.056,589.965,343.711,595.938,343.711,596.16Z" fill="#014385"/>
      <path id="Path_54" data-name="Path 54" d="M345.923,595.053l-1.106.443s-2.434-5.752-6.195-6.858a4.142,4.142,0,0,0-3.54.442,5.1,5.1,0,0,0-2.433,3.319c-.885,3.761,1.991,8.407,1.991,8.628l-.885.664c-.221-.222-3.319-5.089-2.213-9.514a6.482,6.482,0,0,1,3.1-4.2,5.326,5.326,0,0,1,4.425-.664C343.268,588.638,345.923,594.832,345.923,595.053Z" fill="#014385"/>
      <path id="Path_55" data-name="Path 55" d="M380.436,629.788l-19.69-27.876c2.434,11.5,3.761,35.177-18.8,48.673l.442.885a1.223,1.223,0,0,0,1.77.663l35.62-19.248A2.175,2.175,0,0,0,380.436,629.788Z" fill="#003968"/>
      <path id="Path_56" data-name="Path 56" d="M360.746,601.912l-6.858-9.735a1.441,1.441,0,0,0-1.991-.442l-27.434,15.044a1.393,1.393,0,0,0-.664,1.77l18.142,42.257C364.507,637.089,362.958,613.416,360.746,601.912Z" fill="#014385"/>
      <path id="Path_57" data-name="Path 57" d="M221.365,812.089l-26.106-123.23H397.693L364.95,812.089ZM201.233,693.726l24.115,113.5H361.189l30.309-113.5Z" fill="#014385"/>
      <path id="Path_58" data-name="Path 58" d="M387.5,715.149l-183.408,1.433.038,4.868,183.407-1.434Z" fill="#014385"/>
      <path id="Path_59" data-name="Path 59" d="M379.1,747.009l-166.151.974.028,4.867,166.152-.973Z" fill="#014385"/>
      <path id="Path_60" data-name="Path 60" d="M368.711,780.673H217.826v4.868H368.711Z" fill="#014385"/>
      <path id="Path_61" data-name="Path 61" d="M422.251,676.248H397.914a2.4,2.4,0,0,0-2.433,1.77c-1.107,3.761-1.992,7.744-3.1,11.505-2.655,9.513-5.088,19.026-7.743,28.54-3.319,12.389-6.637,24.557-9.956,36.946-3.318,12.169-6.637,24.558-9.956,36.726-2.433,9.292-4.867,18.363-7.522,27.655-.663,2.655-1.327,5.089-1.991,7.743a43.558,43.558,0,0,1-1.77,5.753A22.917,22.917,0,0,1,332.87,846.16H233.976c-3.1,0-3.1,4.867,0,4.867h98.23a28.387,28.387,0,0,0,15.929-4.424,27.953,27.953,0,0,0,11.726-16.151l1.328-4.646c2.212-7.965,4.2-15.708,6.415-23.673,3.1-11.725,6.416-23.672,9.514-35.4,3.318-12.61,6.858-25.221,10.177-38.053l8.628-31.858c1.549-5.531,3.1-11.062,4.425-16.593,0-.222.221-.443.221-.664a16.955,16.955,0,0,1-2.433,1.77h24.336C425.348,681.116,425.348,676.248,422.251,676.248Z" fill="#014385"/>
      <path id="Path_62" data-name="Path 62" d="M266.941,862.311a13.054,13.054,0,1,1-13.053-13.054A13.078,13.078,0,0,1,266.941,862.311Z" fill="#014385"/>
      <path id="Path_63" data-name="Path 63" d="M257.87,862.311a3.982,3.982,0,1,1-3.982-3.983A3.966,3.966,0,0,1,257.87,862.311Z" fill="#fffeff"/>
      <path id="Path_64" data-name="Path 64" d="M337.958,862.311A13.053,13.053,0,1,1,324.9,849.257,12.938,12.938,0,0,1,337.958,862.311Z" fill="#014385"/>
      <path id="Path_65" data-name="Path 65" d="M329.109,862.311a3.982,3.982,0,1,1-3.982-3.983A3.966,3.966,0,0,1,329.109,862.311Z" fill="#fffeff"/>
      <path id="Path_66" data-name="Path 66" d="M248.369,690.916l-4.843.487L255.4,809.614l4.843-.485Z" fill="#014385"/>
      <path id="Path_67" data-name="Path 67" d="M338.276,691.131,326.56,809.355l4.843.48L343.12,691.611Z" fill="#014385"/>
      <path id="Path_68" data-name="Path 68" d="M295.7,691.293h-4.868V809.656H295.7Z" fill="#014385"/>
      <path id="Path_69" data-name="Path 69" d="M607.428,814.744A55.111,55.111,0,0,1,613.18,802.8l1.991.664a46.182,46.182,0,0,0,3.761-9.071c7.08.664,14.381,1.106,21.239-.221,7.08-1.549,13.5-5.089,20.133-8.186a131.1,131.1,0,0,1,50.221-11.5,5.625,5.625,0,0,0,3.761-.885c1.992-1.328,1.77-4.2,1.328-6.638a53.843,53.843,0,0,0-7.965-19.911l21.682-19.469c5.531,14.159,4.424,15.929,7.079,27.655.443,1.991,2.213,12.61,2.434,14.6.885,7.964-.664,15.044-10.62,18.584-34.513,11.725-66.15,10.84-99.557,18.8a33.329,33.329,0,0,0-20.133,19.248S604.994,822.045,607.428,814.744Z" fill="#ffaa95"/>
      <path id="Path_70" data-name="Path 70" d="M623.8,794.169c-2.213-1.549-4.868-1.106-6.638-.885a4.1,4.1,0,0,0-1.548.442L602.339,796.6v1.992s7.522-2.655,12.169-1.77c-1.107,2.655-2.877,5.088-4.868,8.407s-4.867,5.973-6.194,9.513a15.4,15.4,0,0,0-1.107,5.531,51.738,51.738,0,0,0,.885,17.478.813.813,0,0,0,.222.664c.221.221.884,0,1.106-.222,1.548-1.106,2.212-3.1,2.876-4.867.664-1.991,1.327-3.982,2.212-6.2a2.8,2.8,0,0,0,.221-1.327,6.465,6.465,0,0,0-.442-1.991c-1.327-3.319-.221-7.08,1.327-10.62C613.18,805.9,619.154,800.364,623.8,794.169Z" fill="#2e2014"/>
      <path id="Path_71" data-name="Path 71" d="M704.994,863.417c-2.433-16.151-10.84-31.637-9.955-48.009.221-5.752,1.769-11.505,2.876-17.036a113.062,113.062,0,0,0-1.328-45.575l25.885-5.531c1.77,36.062-7.964,53.319-6.194,89.159.221,4.425,1.327,24.116,2.876,29.425.885,3.319,1.106,5.974,3.1,10.177.221.222.221.443.442.885a141.168,141.168,0,0,0,11.505,21.46,22.928,22.928,0,0,1-8.186.885c-3.982-.663-15.044-10.619-17.257-14.823a55.717,55.717,0,0,1-3.318-7.522,13.446,13.446,0,0,0-2.213-1.548C705.658,872.266,705.658,867.62,704.994,863.417Z" fill="#f49987"/>
      <path id="Path_72" data-name="Path 72" d="M746.809,907.222c-.885-1.991-2.877-3.319-4.646-4.425-1.992-1.327-4.2-2.655-6.2-3.982a3.308,3.308,0,0,0-1.549-.664,8.928,8.928,0,0,0-2.433,0c-4.2.221-7.965-1.991-11.284-4.424-7.079-5.089-11.283-13.275-17.035-19.912-2.434,1.991-2.655,4.867-3.1,6.858a4.706,4.706,0,0,0,0,1.77l-.664,15.045,2.212.663s-.663-8.628,1.77-13.274c2.655,1.991,4.646,4.425,7.965,7.522,3.1,3.1,5.31,6.858,8.849,9.513a20,20,0,0,0,5.753,2.876,68.128,68.128,0,0,0,19.69,4.2,1.331,1.331,0,0,0,.885-.221C747.03,908.328,746.809,907.665,746.809,907.222Z" fill="#2e2014"/>
      <path id="Path_73" data-name="Path 73" d="M693.047,507.443c7.08-6.2,17.478-1.77,22.124,2.433s8.407,9.735,9.292,15.93c1.107,9.513-4.424,18.8-3.539,28.318.663,7.08,4.646,13.053,7.3,19.691a47.573,47.573,0,0,1,1.992,27.212c-1.328,5.31-3.54,10.841-7.965,14.159-4.646,3.54-11.062,4.425-16.814,3.54-3.54-.664-7.08-1.77-9.735-3.982a22.1,22.1,0,0,1-7.522-11.726c-1.327-4.646-1.327-9.292-1.327-14.159" fill="#49270b"/>
      <path id="Path_74" data-name="Path 74" d="M710.083,529.124c-2.876,5.531-1.77,12.39.442,18.142s5.531,11.062,7.965,16.814a47.971,47.971,0,0,1,2.434,24.336c-.664,3.54-1.77,7.08-3.983,9.735-4.867,5.531-13.938,5.531-20.354,1.991-6.416-3.761-10.619-10.177-14.38-16.593" fill="#351905"/>
      <path id="Path_75" data-name="Path 75" d="M709.2,540.629a14.9,14.9,0,0,1-.221,4.424c-2.213,12.832,0,25.222,3.1,37.611a7.307,7.307,0,0,1-4.867.443,203.739,203.739,0,0,1-24.337-13.938c-.221-.222-.442-.222-.442-.443-.443-.664.221-1.327.664-1.77,4.646-4.425,7.743-10.619,9.292-17.035a82,82,0,0,0,1.991-19.469" fill="#f49987"/>
      <path id="Path_76" data-name="Path 76" d="M709.862,572.708c-8.186-.663-13.717-8.628-21.239-11.5a4.6,4.6,0,0,0-2.434-.221c-1.106.221-1.77,1.327-2.434,2.433-3.318,5.531-6.194,11.062-9.07,16.814a49.2,49.2,0,0,0-4.646,12.39c-1.549,7.3-.885,14.823.663,22.124a158.644,158.644,0,0,0,5.974,22.345,7.278,7.278,0,0,0,1.548,2.876,5.675,5.675,0,0,0,2.655,1.106,238.483,238.483,0,0,0,35.177,5.974H717.6a3.632,3.632,0,0,0,1.549-2.434q3.318-12.942,6.637-25.885a44.422,44.422,0,0,0,1.77-10.619c0-4.868-2.876-8.186-5.31-12.169C716.5,585.54,714.065,582,709.862,572.708Z" fill="#ff9e05"/>
      <path id="Path_77" data-name="Path 77" d="M712.516,641.956c5.974,14.823,12.169,29.868,21.018,43.363,3.761,5.531,7.744,10.841,11.505,16.372a132.514,132.514,0,0,1,19.026,43.141,46.092,46.092,0,0,0-42.035,13.939c-4.646,5.088-8.186,11.5-13.938,15.486-6.859,5.089-15.93,6.2-24.558,6.637a230.032,230.032,0,0,1-34.956-.663c7.965-10.62,9.514-24.558,9.071-37.611-.442-13.274-2.433-26.327-.664-39.38,1.107-8.408,3.983-16.593,6.859-24.779,4.646-13.053,9.734-25.885,15.044-38.717" fill="#ff9e05"/>
      <g id="Group_1" data-name="Group 1" opacity="0.52">
        <path id="Path_78" data-name="Path 78" d="M678.888,762.31c4.867.222,9.292-4.646,11.062-10.619s1.106-13.053-.221-19.69-3.54-12.832-5.089-19.248a119.347,119.347,0,0,1-3.54-31.859c-2.212,4.868-3.1,10.841-3.982,16.593-2.212,13.938-4.2,27.876-5.31,42.036C671.145,747.709,670.7,760.983,678.888,762.31Z" fill="#ea8d07" opacity="0.52" style="isolation: isolate"/>
      </g>
      <g id="Group_2" data-name="Group 2" opacity="0.52">
        <path id="Path_79" data-name="Path 79" d="M728,728.9c4.868-.885,7.965-6.637,8.186-12.832s-1.77-13.053-4.646-19.026-6.416-11.726-9.292-17.478a122.417,122.417,0,0,1-10.841-30.089c-.885,5.31-.442,11.284,0,17.036,1.106,13.938,2.213,28.1,4.646,42.035C717.163,716.293,719.817,729.567,728,728.9Z" fill="#ea8d07" opacity="0.52" style="isolation: isolate"/>
      </g>
      <g id="Group_3" data-name="Group 3" opacity="0.52">
        <path id="Path_80" data-name="Path 80" d="M683.977,590.407a66.314,66.314,0,0,0,2.654,39.824c1.328,3.318,2.877,6.637,5.753,8.628,4.2,3.318,10.177,3.54,15.708,3.318a4.943,4.943,0,0,0,3.1-.663c.664-.443.885-1.328,1.327-1.991,1.549-3.983,30.089-20.8-10.177-54.868" fill="#ea8d07" opacity="0.52" style="isolation: isolate"/>
      </g>
      <path id="Path_81" data-name="Path 81" d="M709.862,572.708a66.668,66.668,0,0,0,2.212,14.823c.221.664,0,1.77-.664,1.77a.812.812,0,0,1-.663-.221c-6.2-3.54-12.169-7.08-18.363-10.619a54.57,54.57,0,0,1-5.974-3.762c-.442-.221-.663-.663-.885-.884-.221-.443.222-1.107.443-1.549,1.327-2.213,2.876-4.2,4.2-6.416a2.664,2.664,0,0,1,1.107-1.106c1.106-.443,2.212.221,3.318.885a34.531,34.531,0,0,0,14.823,6.637" fill="#e88c07"/>
      <path id="Path_82" data-name="Path 82" d="M678.224,639.744s36.284,5.31,41.593,2.655l.664,5.309s-28.982,2.877-44.027-2.212Z" fill="#ff5e2c"/>
      <path id="Path_83" data-name="Path 83" d="M724.906,639.744c3.1-1.106-6.2-24.115-10.62-35.841A51.709,51.709,0,0,0,698.8,581.779c-1.77-1.549-3.983-3.1-6.2-3.318-4.867-.664-9.513,3.539-10.62,8.407s0,9.734,1.549,14.6a136,136,0,0,0,24.115,43.142,3.963,3.963,0,0,0,1.549,1.106,2.722,2.722,0,0,0,2.212-.442C716.278,642.841,720.26,641.735,724.906,639.744Z" fill="#f99906"/>
      <path id="Path_84" data-name="Path 84" d="M681.543,534.655c4.2,8.407,10.619,15.708,19.469,19.248,3.54,1.549,8.628,3.319,12.389,1.991,3.1-1.106,4.646-5.973,5.974-9.071a30.6,30.6,0,0,0,2.212-10.84c-.442-9.071-1.327-15.266-7.743-21.682-6.637-6.858-19.027.221-27.876-1.327" fill="#ffaa95"/>
      <path id="Path_85" data-name="Path 85" d="M723.578,524.921c-2.433-1.328-1.106-2.434-7.079-1.107-.221,0-1.991.443-1.991.664-.222.443-.222.885.221,1.106a2.8,2.8,0,0,0,1.327.222c1.328,0,2.434-.664,3.761-1.107C721.145,524.478,722.472,524.257,723.578,524.921Z" fill="#49270b"/>
      <path id="Path_86" data-name="Path 86" d="M699.906,529.124c1.991-2.212.221-2.655,6.416-3.761.221,0,1.991-.221,2.212,0,.443.221.443.664.221,1.106a1.215,1.215,0,0,1-1.106.664,12.235,12.235,0,0,1-3.982.443C702.118,527.8,700.791,528.018,699.906,529.124Z" fill="#351905"/>
      <path id="Path_87" data-name="Path 87" d="M718.49,543.284a104.19,104.19,0,0,1-11.062,1.769,9.641,9.641,0,0,0,3.1,2.877,6.385,6.385,0,0,0,3.983.663A7.053,7.053,0,0,0,718.49,543.284Z" fill="#fff"/>
      <path id="Path_88" data-name="Path 88" d="M715.393,530.23a5.221,5.221,0,0,1,1.991-1.327c.663-.221,1.548-.442,1.991.221a.555.555,0,1,0,.885-.663,2.507,2.507,0,0,0-2.876-.885,12.556,12.556,0,0,0-2.876,1.769C714.065,530.009,714.95,530.894,715.393,530.23Z" fill="#f49987"/>
      <path id="Path_89" data-name="Path 89" d="M705.216,532.222c0-.222,0-.222.221-.443a.216.216,0,0,1,.221-.221h0l.221-.221.222-.222c.221,0,.442-.221.663-.221h1.106c.443.221.885.221,1.328.443a.495.495,0,1,0,.442-.885,6.36,6.36,0,0,0-3.539-.664,3.294,3.294,0,0,0-1.549.664,1.91,1.91,0,0,0-.664,1.327c0,.221.221.664.443.664C704.773,532.664,705.216,532.443,705.216,532.222Z" fill="#f49987"/>
      <path id="Path_90" data-name="Path 90" d="M705.658,541.514c2.445,0,4.425-1.487,4.425-3.319s-1.98-3.319-4.425-3.319-4.425,1.487-4.425,3.319S703.213,541.514,705.658,541.514Z" fill="#f24d20" opacity="0.34" style="isolation: isolate"/>
      <path id="Path_91" data-name="Path 91" d="M721.366,533.107c-2.434,0-4.425,1.548-4.425,3.318s1.77,3.319,4.2,3.319A35.8,35.8,0,0,0,721.366,533.107Z" fill="#f24d20" opacity="0.34" style="isolation: isolate"/>
      <path id="Path_92" data-name="Path 92" d="M712.074,529.124a11.489,11.489,0,0,0,5.31,8.85c0-.221-.221-.443-.221-.664a11.58,11.58,0,0,1-2.434,2.212c-.664.443,0,1.328.664.885a7.612,7.612,0,0,0,2.654-2.654.424.424,0,0,0-.221-.664,10.371,10.371,0,0,1-4.646-7.965C713.18,528.239,712.074,528.239,712.074,529.124Z" fill="#f49987"/>
      <path id="Path_93" data-name="Path 93" d="M646.366,612.089c9.956-1.106,17.92-8.628,25-15.708,5.31-5.31,10.841-11.062,12.389-18.584.885-4.425.443-8.85.222-13.275a62.153,62.153,0,0,1,10.177-35.177c3.539-5.309,7.964-10.177,10.84-15.929a34.615,34.615,0,0,0,2.655-6.637,13.173,13.173,0,0,1,1.991,3.319c2.213,13.274-8.407,25.442-7.964,38.938.221,5.309,1.991,10.4,3.1,15.708,1.549,7.964,1.328,16.593-2.655,23.672-3.318,5.531-8.628,9.735-11.5,15.487-3.319,6.858-2.213,15.044-4.867,22.345a24.6,24.6,0,0,1-9.735,12.39,21.547,21.547,0,0,1-8.85,3.318c-9.734,1.991-20.8-.663-27.876-7.743-6.858-6.637-10.177-16.814-7.964-25.885A25.5,25.5,0,0,0,646.366,612.089Z" fill="#351905"/>
      <path id="Path_94" data-name="Path 94" d="M646.587,577.8c1.77-8.628-1.549-18.142,2.434-25.885,3.1-5.974,9.956-9.292,13.717-15.044,2.212-3.319,3.1-7.3,4.2-11.062,1.991-6.2,4.425-12.169,8.85-17.036,4.2-4.867,10.177-8.407,16.593-8.628,5.088-.221,11.5,2.655,15.044,6.858a34.652,34.652,0,0,1-2.655,6.637c-3.1,5.753-7.3,10.62-10.841,15.93a62.164,62.164,0,0,0-10.177,35.177c0,4.425.664,9.071-.221,13.274-1.549,7.3-7.08,13.274-12.389,18.584-7.08,7.08-15.045,14.6-25,15.708a25.185,25.185,0,0,1-15.266-3.982c.221-.443.221-1.106.443-1.549C634.862,596.16,644.375,588.416,646.587,577.8Z" fill="#49270b"/>
      <path id="Path_95" data-name="Path 95" d="M761.189,728.682l-2.434-.221c0-.221,1.107-12.611-3.982-17.921a8.338,8.338,0,0,0-6.416-2.433,10.558,10.558,0,0,0-7.522,3.54c-5.088,5.752-4.425,16.814-4.425,16.814l-2.433.221c0-.442-.664-11.947,5.088-18.584a12.968,12.968,0,0,1,9.071-4.2,10.532,10.532,0,0,1,8.407,3.1C762.517,714.965,761.41,728.018,761.189,728.682Z" fill="#014385"/>
      <path id="Path_96" data-name="Path 96" d="M766.5,728.682l-2.434-.221c0-.221,1.106-12.611-3.982-17.921a8.338,8.338,0,0,0-6.416-2.433,10.558,10.558,0,0,0-7.522,3.54c-5.089,5.752-4.425,16.814-4.425,16.814h-2.434c0-.443-.663-11.947,5.089-18.584a12.964,12.964,0,0,1,9.071-4.2,10.537,10.537,0,0,1,8.407,3.1C767.6,714.965,766.5,728.018,766.5,728.682Z" fill="#014385"/>
      <path id="Path_97" data-name="Path 97" d="M793.49,821.824l-7.965-67.257c-6.858,22.345-26.548,65.044-78.982,67.257l-.221,1.77a2.613,2.613,0,0,0,2.655,2.876h80.531A4.142,4.142,0,0,0,793.49,821.824Z" fill="rgba(0,132,255,0.85)"/>
      <path id="Path_98" data-name="Path 98" d="M785.525,754.567l-2.876-23.451a3.053,3.053,0,0,0-2.876-2.655H717.6a2.828,2.828,0,0,0-2.655,2.433l-8.407,91.151C758.977,819.611,778.667,776.912,785.525,754.567Z" fill="#0084ff"/>
      <path id="Path_99" data-name="Path 99" d="M774.242,718.505l-2.212.885c0-.221-5.089-11.5-12.168-13.717A7.768,7.768,0,0,0,753,706.779a9.894,9.894,0,0,0-4.867,6.637c-1.77,7.523,3.982,16.815,4.2,17.036l-1.992,1.327c-.221-.442-6.416-10.177-4.424-18.8a13.184,13.184,0,0,1,5.973-8.186,10.537,10.537,0,0,1,8.85-1.327C768.711,706.116,774.021,718.063,774.242,718.505Z" fill="#014385"/>
      <path id="Path_100" data-name="Path 100" d="M778.888,716.071l-2.212.885c0-.221-5.089-11.5-12.168-13.716a7.765,7.765,0,0,0-6.859,1.106,9.891,9.891,0,0,0-4.867,6.637c-1.77,7.522,3.982,16.814,4.2,17.035l-1.992,1.328c-.221-.443-6.415-10.177-4.424-18.806a13.184,13.184,0,0,1,5.973-8.185,10.538,10.538,0,0,1,8.85-1.328C773.357,703.461,778.667,715.629,778.888,716.071Z" fill="#014385"/>
      <path id="Path_101" data-name="Path 101" d="M847.03,785.1l-39.159-55.31c4.646,22.788,7.743,69.691-37.169,96.682l.664,1.548a2.846,2.846,0,0,0,3.761,1.328l70.8-38.5A3.789,3.789,0,0,0,847.03,785.1Z" fill="#003968"/>
      <path id="Path_102" data-name="Path 102" d="M807.871,729.788l-13.717-19.469a2.822,2.822,0,0,0-3.761-.885L735.747,739.08a2.514,2.514,0,0,0-1.107,3.319L770.7,826.47C815.614,799.7,812.738,752.576,807.871,729.788Z" fill="#014385"/>
      <path id="Path_103" data-name="Path 103" d="M724.906,639.744c3.761,8.628,5.752,14.38,9.513,23.009s7.522,17.035,11.283,25.663a17.532,17.532,0,0,0,3.319,5.531,22.936,22.936,0,0,0,3.761,2.655,26.472,26.472,0,0,1,6.2,5.974,3.979,3.979,0,0,1,.885,1.991c-.222,1.77-3.319,1.991-3.761,3.982-.443,1.549,1.77,2.655,1.991,4.425.442,1.991-1.991,3.319-3.983,3.982-2.212.664-4.424,1.549-6.637,2.213a8.882,8.882,0,0,1-3.318.663c-2.655-.221-4.425-3.318-4.646-5.973-.443-3.54.442-7.08.221-10.841-.443-4.425-2.876-8.628-5.089-12.61-10.84-18.142-17.92-29.425-23.23-45.133" fill="#ffaa95"/>
    </g>
    <text id="_" data-name="ဝယ်ယူမယ်" transform="translate(516 806)" fill="#fff" font-size="15" font-family="NotoSansMyanmar-Regular, Noto Sans Myanmar"><tspan x="0" y="0">ဝယ်ယူမယ်</tspan></text>
    <g transform="matrix(1, 0, 0, 1, 0, 0)" filter="url(#Shopping_Time)">
      <text id="Shopping_Time-2" data-name="Shopping Time" transform="translate(206 194)" fill="#1784ff" font-size="87" font-family="MyanmarText-Bold, Myanmar Text" font-weight="700"><tspan x="0" y="0">Shopping Time</tspan></text>
    </g>
  </g>
</svg>
